<svg xmlns="http://www.w3.org/2000/svg" width="559.971" height="419.662" viewBox="0 0 559.971 419.662">
  <g id="Group_19137" data-name="Group 19137" transform="translate(-1555.561 -1138.395)" opacity="0.9">
    <path id="Polygon_47" data-name="Polygon 47" d="M224.3,0l74.767,129.5L224.3,259H74.767L0,129.5,74.767,0Z" transform="matrix(0.951, 0.309, -0.309, 0.951, 1716.504, 1218.203)" fill="#fff" opacity="0.06"/>
    <path id="Polygon_48" data-name="Polygon 48" d="M224.3,0l74.767,129.5L224.3,259H74.767L0,129.5,74.767,0Z" transform="matrix(0.951, 0.309, -0.309, 0.951, 1831.102, 1192.35)" fill="#fff" opacity="0.06"/>
    <path id="Polygon_49" data-name="Polygon 49" d="M138.941,0l46.314,80.218-46.314,80.218H46.314L0,80.218,46.314,0Z" transform="matrix(0.951, 0.309, -0.309, 0.951, 1758.138, 1138.395)" fill="#fff" opacity="0.06"/>
    <path id="Polygon_50" data-name="Polygon 50" d="M138.941,0l46.314,80.218-46.314,80.218H46.314L0,80.218,46.314,0Z" transform="matrix(0.951, 0.309, -0.309, 0.951, 1605.138, 1348.227)" fill="#fff" opacity="0.06"/>
    <path id="Polygon_52" data-name="Polygon 52" d="M56.265,0,75.02,32.408,56.265,64.817H18.755L0,32.408,18.755,0Z" transform="matrix(0.951, 0.309, -0.309, 0.951, 1583.119, 1323.518)" fill="#fff" opacity="0.06"/>
    <path id="Polygon_53" data-name="Polygon 53" d="M80.344,0l26.781,46.278L80.344,92.555H26.781L0,46.278,26.781,0Z" transform="matrix(0.951, 0.309, -0.309, 0.951, 1621.958, 1218.203)" fill="#fff" opacity="0.06"/>
    <path id="Polygon_51" data-name="Polygon 51" d="M164.989,0l55,95.257-55,95.257H55L0,95.257,55,0Z" transform="matrix(0.951, 0.309, -0.309, 0.951, 1695.341, 1214.748)" fill="#fff" opacity="0.06"/>
  </g>
</svg>
