<svg xmlns="http://www.w3.org/2000/svg" xmlns:xlink="http://www.w3.org/1999/xlink" width="265.627" height="511.941" viewBox="0 0 265.627 511.941">
  <defs>
    <linearGradient id="linear-gradient" x1="0.5" x2="0.5" y2="1" gradientUnits="objectBoundingBox">
      <stop offset="0" stop-color="#fb3b22"/>
      <stop offset="1" stop-color="#fb9133"/>
    </linearGradient>
  </defs>
  <g id="Group_19238" data-name="Group 19238" transform="translate(-1479.095 -1507.597)">
    <path id="Path_36316" data-name="Path 36316" d="M12.5,39.026s.158,23.169,0,28.166a179.984,179.984,0,0,0,2.737,38.691C20.362,135,36.448,146.19,33,175.454c-7.314,62-54.241,120.031-68.781,126.648s-24.106-135.187,2.409-131.974S79.7,223.063,69.945,253.311s-127.272-25.34-153.1-6.246,27.714,93.776,49.781,82.622S34.786,271.851,33,249.529s-72.36-66.167-111.534-44.615S-170.4,323.637-123.7,335.737,83.288,320.423,94.578,278.265a16.868,16.868,0,0,0,.53-3.757C97.121,229.834-10.383,131.875-59.269,162.5S-153.2,366.664-100.434,396.988c13.078,7.515,159.19,103.589,195.012,82.786,53.4-31.009-1.4-117.457-50.412-188.654S-86.407,182.039-114.8,213.988-68.616,415.705-14.9,441.6,105.511,251.162,114.422,291.12c1.185,5.316,29.866,128.535-27.844,150.484-49.745,18.92-194.421-76.166-210.276-56.276-20.174,25.307,150.86,90.705,193.644,81.991s26.04-96.585-13.611-105.187-179.421-25.871-184.434,5.3c-2.578,16.03,139.293-90.684,166.643-48.552C53.2,341.461,28.219,393.938,19.3,463.206" transform="translate(1621.635 1536.281)" fill="none" stroke="#fff" stroke-width="1" opacity="0.57"/>
    <g id="bulb-svgrepo-com_4_" data-name="bulb-svgrepo-com (4)" transform="translate(1604.786 1507.597)">
      <g id="Group_19224" data-name="Group 19224" transform="translate(27.891)">
        <g id="Group_19223" data-name="Group 19223">
          <path id="Path_36317" data-name="Path 36317" d="M248.9,0a1.068,1.068,0,0,0-1.068,1.068v5.8a1.068,1.068,0,0,0,2.136,0v-5.8A1.068,1.068,0,0,0,248.9,0Z" transform="translate(-247.834 0)" fill="url(#linear-gradient)"/>
        </g>
      </g>
      <g id="Group_19226" data-name="Group 19226" transform="translate(12.011 4.044)">
        <g id="Group_19225" data-name="Group 19225">
          <path id="Path_36318" data-name="Path 36318" d="M131.169,36.581l-2.776-5.1a1.068,1.068,0,1,0-1.875,1.021l2.776,5.1a1.068,1.068,0,1,0,1.875-1.021Z" transform="translate(-126.388 -30.927)" fill="url(#linear-gradient)"/>
        </g>
      </g>
      <g id="Group_19228" data-name="Group 19228" transform="translate(0 15.191)">
        <g id="Group_19227" data-name="Group 19227">
          <path id="Path_36319" data-name="Path 36319" d="M41.057,119.5l-4.876-3.148a1.068,1.068,0,0,0-1.158,1.794l4.876,3.148a1.068,1.068,0,1,0,1.158-1.794Z" transform="translate(-34.534 -116.18)" fill="url(#linear-gradient)"/>
        </g>
      </g>
      <g id="Group_19230" data-name="Group 19230" transform="translate(40.994 4.044)">
        <g id="Group_19229" data-name="Group 19229">
          <path id="Path_36320" data-name="Path 36320" d="M352.4,31.058a1.068,1.068,0,0,0-1.448.427l-2.776,5.1a1.068,1.068,0,1,0,1.875,1.021l2.776-5.1A1.068,1.068,0,0,0,352.4,31.058Z" transform="translate(-348.047 -30.927)" fill="url(#linear-gradient)"/>
        </g>
      </g>
      <g id="Group_19232" data-name="Group 19232" transform="translate(50.905 15.192)">
        <g id="Group_19231" data-name="Group 19231">
          <path id="Path_36321" data-name="Path 36321" d="M430.685,116.672a1.068,1.068,0,0,0-1.476-.318l-4.876,3.148a1.068,1.068,0,1,0,1.158,1.794l4.876-3.148A1.068,1.068,0,0,0,430.685,116.672Z" transform="translate(-423.844 -116.183)" fill="url(#linear-gradient)"/>
        </g>
      </g>
      <g id="Group_19234" data-name="Group 19234" transform="translate(15.174 10.125)">
        <g id="Group_19233" data-name="Group 19233">
          <path id="Path_36322" data-name="Path 36322" d="M177.656,82.985a18.584,18.584,0,0,0-26.778.287,1.068,1.068,0,0,0,1.546,1.473,16.51,16.51,0,0,1,25.317,21.09c-.019.026-.036.052-.053.079l-.13.217c-.51.849-.978,1.628-1.408,2.353a1.068,1.068,0,1,0,1.836,1.09c.428-.722.895-1.5,1.4-2.343l.106-.177a18.674,18.674,0,0,0-1.838-24.069Z" transform="translate(-150.583 -77.431)" fill="url(#linear-gradient)"/>
        </g>
      </g>
      <g id="Group_19236" data-name="Group 19236" transform="translate(10.284 19.033)">
        <g id="Group_19235" data-name="Group 19235">
          <path id="Path_36323" data-name="Path 36323" d="M142.963,171a1.068,1.068,0,0,0-1.438.462,18.623,18.623,0,0,0-1.85,5H124.047c-.636-3.224-2.278-5.957-5.315-11.013l-.191-.318c-.016-.027-.034-.053-.053-.079a16.4,16.4,0,0,1-.965-17.894,1.068,1.068,0,1,0-1.849-1.068,18.54,18.54,0,0,0,1.06,20.182l.167.278c3.051,5.08,4.542,7.561,5.08,10.484a3.554,3.554,0,0,0-.611,5.484,3.558,3.558,0,0,0,2.539,6.053H125.4a6.706,6.706,0,0,0,12.917,0h1.493a3.558,3.558,0,0,0,2.539-6.053,3.554,3.554,0,0,0-.611-5.484,16.172,16.172,0,0,1,1.684-4.6A1.068,1.068,0,0,0,142.963,171Zm-11.1,20.338a4.586,4.586,0,0,1-4.2-2.766h8.4A4.586,4.586,0,0,1,131.861,191.339Zm4.982-7.751h2.969a1.425,1.425,0,0,1,0,2.85h-15.9a1.425,1.425,0,0,1,0-2.85h8.713a1.068,1.068,0,1,0,0-2.136h-8.713a1.425,1.425,0,0,1-.41-2.79,1.412,1.412,0,0,1,.168-.039l.051-.008a1.459,1.459,0,0,1,.19-.014h15.9a1.436,1.436,0,0,1,.19.014l.052.008a1.4,1.4,0,0,1,.167.038,1.425,1.425,0,0,1-.408,2.79h-2.969a1.068,1.068,0,1,0,0,2.135Z" transform="translate(-113.187 -145.56)" fill="url(#linear-gradient)"/>
        </g>
      </g>
    </g>
    <circle id="Ellipse_3198" data-name="Ellipse 3198" cx="4.5" cy="4.5" r="4.5" transform="translate(1573.484 1713.595)" fill="#fb3b22"/>
    <circle id="Ellipse_3199" data-name="Ellipse 3199" cx="4.5" cy="4.5" r="4.5" transform="translate(1673.244 1842.138)" fill="#fb3b22"/>
    <circle id="Ellipse_3200" data-name="Ellipse 3200" cx="4.5" cy="4.5" r="4.5" transform="translate(1503.415 1898.674)" fill="#f3f3ee"/>
    <circle id="Ellipse_3201" data-name="Ellipse 3201" cx="4.5" cy="4.5" r="4.5" transform="translate(1503.415 1806.606)" fill="#fb3b22"/>
    <circle id="Ellipse_3202" data-name="Ellipse 3202" cx="4.5" cy="4.5" r="4.5" transform="translate(1711.988 1971.376)" fill="#f3f3ee"/>
    <circle id="Ellipse_3204" data-name="Ellipse 3204" cx="4.5" cy="4.5" r="4.5" transform="translate(1569.683 1860.949)" fill="#f3f3ee"/>
    <circle id="Ellipse_3205" data-name="Ellipse 3205" cx="4.5" cy="4.5" r="4.5" transform="translate(1648.541 1718.821)" fill="#f3f3ee"/>
    <circle id="Ellipse_3203" data-name="Ellipse 3203" cx="4.5" cy="4.5" r="4.5" transform="translate(1636.19 1997.376)" fill="#fb3b22"/>
  </g>
</svg>
