<svg xmlns="http://www.w3.org/2000/svg" width="34.799" height="33.219" viewBox="0 0 34.799 33.219">
  <g id="_24-hour-service-svgrepo-com" data-name="24-hour-service-svgrepo-com" transform="translate(0 -10.479)">
    <g id="Layer_2_17_" transform="translate(0 10.479)">
      <g id="Group_18688" data-name="Group 18688" transform="translate(0 0)">
        <path id="Path_35478" data-name="Path 35478" d="M245.337,409.324c-.273.074-.552.139-.828.2a1.337,1.337,0,0,0-1.043,1.577c.008.041.019.081.03.12a1.338,1.338,0,0,0,1.547.923c.33-.068.663-.146.989-.234a1.337,1.337,0,1,0-.7-2.582Z" transform="translate(-225.082 -379.206)" fill="#111d2b"/>
        <path id="Path_35479" data-name="Path 35479" d="M111.615,393.618c-.258-.115-.516-.239-.766-.37a1.337,1.337,0,0,0-1.238,2.371c.3.155.605.3.913.441a1.337,1.337,0,1,0,1.091-2.442Z" transform="translate(-100.682 -364.245)" fill="#111d2b"/>
        <path id="Path_35480" data-name="Path 35480" d="M176.895,414.292c-.281-.023-.567-.055-.847-.094a1.337,1.337,0,1,0-.376,2.648c.333.047.672.085,1.008.112a1.337,1.337,0,1,0,.215-2.666Z" transform="translate(-161.363 -383.743)" fill="#111d2b"/>
        <path id="Path_35481" data-name="Path 35481" d="M309.025,380.549c-.232.16-.473.315-.716.461a1.338,1.338,0,0,0-.591,1.53,1.358,1.358,0,0,0,.136.305,1.337,1.337,0,0,0,1.836.455c.288-.174.575-.359.851-.549a1.337,1.337,0,0,0-1.516-2.2Z" transform="translate(-284.463 -352.425)" fill="#111d2b"/>
        <path id="Path_35482" data-name="Path 35482" d="M362.5,332.382a1.338,1.338,0,0,0-1.867.3c-.165.229-.34.456-.518.674a1.337,1.337,0,1,0,2.069,1.695c.213-.26.422-.531.618-.8A1.337,1.337,0,0,0,362.5,332.382Z" transform="translate(-332.677 -307.875)" fill="#111d2b"/>
        <path id="Path_35483" data-name="Path 35483" d="M395.754,270.221a1.337,1.337,0,0,0-1.658.909c-.079.272-.168.544-.263.81a1.337,1.337,0,0,0,2.517.9c.113-.317.219-.642.313-.965A1.337,1.337,0,0,0,395.754,270.221Z" transform="translate(-364.063 -250.586)" fill="#111d2b"/>
        <path id="Path_35484" data-name="Path 35484" d="M34.2,21.4l-1.757.546A16.516,16.516,0,0,0,24.5,12.462q-.574-.308-1.164-.568l-.008,0-.05-.021A16.492,16.492,0,0,0,12.3,11.061c-.029.006-.058.011-.086.019-.123.033-.247.07-.369.106-.2.061-.4.126-.6.194-.023.008-.046.018-.068.027A16.48,16.48,0,0,0,3.109,17.44c-.007.01-.015.018-.022.028-.195.274-.384.557-.562.844-.011.018-.02.037-.031.056q-.267.433-.51.884A16.511,16.511,0,0,0,.131,29.17c0,.008,0,.015,0,.023s0,.011,0,.017a16.8,16.8,0,0,0,.578,2.707,16.5,16.5,0,0,0,3.511,6.273,1.337,1.337,0,0,0,1.995-1.782,13.8,13.8,0,0,1-2.029-2.973c-.006-.013-.011-.027-.017-.039-.128-.253-.249-.512-.361-.772l0,0a14.179,14.179,0,0,1-.535-1.474A13.978,13.978,0,0,1,8.4,15.852c.069-.05.137-.1.206-.149a13.97,13.97,0,0,1,8.444-2.538l.07,0c.089,0,.179.007.268.012l.108.006A14.013,14.013,0,0,1,28.639,20l0,.007c.035.059.069.118.1.178l.012.02a13.922,13.922,0,0,1,1.129,2.541l-1.757.546c-.488.152-.536.5-.108.78l3.824,2.477a.748.748,0,0,0,1.136-.353l1.747-4.209C34.926,21.512,34.688,21.25,34.2,21.4Z" transform="translate(0 -10.479)" fill="#111d2b"/>
        <path id="Path_35485" data-name="Path 35485" d="M112.647,168.6a11.345,11.345,0,0,0-2.636,2.485,5.051,5.051,0,0,0-.841,2.247h8.063v-2.191h-4.2q.37-.363.643-.587t1.085-.786A7.1,7.1,0,0,0,116.648,168a3.074,3.074,0,0,0,.518-1.689,2.625,2.625,0,0,0-.452-1.5,2.69,2.69,0,0,0-1.241-.993,6.007,6.007,0,0,0-2.207-.323,5.383,5.383,0,0,0-2.128.34,2.7,2.7,0,0,0-1.191.976,4.292,4.292,0,0,0-.581,1.772l2.692.218a1.981,1.981,0,0,1,.439-1.141,1.244,1.244,0,0,1,1.663-.01,1.009,1.009,0,0,1,.327.756,1.493,1.493,0,0,1-.33.865A7.844,7.844,0,0,1,112.647,168.6Z" transform="translate(-100.937 -151.957)" fill="#8044de"/>
        <path id="Path_35486" data-name="Path 35486" d="M234.894,173.335v-1.808h1.214v-2.086h-1.214V163.5h-2.343l-4.9,5.82v2.21h4.9v1.808Zm-4.929-3.894,2.587-3.044v3.044Z" transform="translate(-210.489 -151.958)" fill="#8044de"/>
      </g>
    </g>
  </g>
</svg>
