<svg xmlns="http://www.w3.org/2000/svg" width="44.716" height="39.41" viewBox="0 0 44.716 39.41">
  <path id="actionlauncher-svgrepo-com" d="M46.659,23.427,28.205,7.715a3.317,3.317,0,0,0-4.29,0L5.462,23.427a2.709,2.709,0,0,0,1.8,4.776H9.575V42.886a1.8,1.8,0,0,0,1.8,1.8H19.5a1.8,1.8,0,0,0,1.8-1.8V37.513a4.754,4.754,0,0,1,9.509,0v5.374a1.8,1.8,0,0,0,1.8,1.8h8.127a1.8,1.8,0,0,0,1.8-1.8V28.2h2.311a2.709,2.709,0,0,0,1.8-4.776Zm-20.6,7.132A4.754,4.754,0,1,1,30.815,25.8,4.754,4.754,0,0,1,26.06,30.558Z" transform="translate(-3.702 -6.029)" fill="none" stroke="#000" stroke-width="1.5"/>
</svg>
