<?xml version="1.0" encoding="UTF-8"?>
<svg version="1.1" xmlns="http://www.w3.org/2000/svg" width="70" height="67">
<path d="M0 0 C6.50207586 4.80342034 10.98916084 9.47290211 14 17 C15.65 17 17.3 17 19 17 C18.45660208 21.56454251 17.20536179 24.9728176 15 29 C11.90694578 28.39096941 9.80360238 27.40131197 7.25 25.5625 C6.32960938 24.91474609 6.32960938 24.91474609 5.390625 24.25390625 C4.93171875 23.84011719 4.4728125 23.42632813 4 23 C4 22.34 4 21.68 4 21 C4.99 20.34 5.98 19.68 7 19 C3.17364224 11.7519954 -1.41358508 7.29320746 -8.75 3.625 C-18.31846002 1.78491153 -25.81128801 2.5610031 -34 8 C-39.70013761 12.43344036 -43.43136906 18.87078279 -44.41796875 26.03515625 C-44.60713609 33.16045939 -43.77867935 39.39800825 -39.3125 45.1875 C-37.60330919 47.54781112 -37.76287124 49.15445486 -38 52 C-39.98 52.495 -39.98 52.495 -42 53 C-50.2185529 42.99943078 -52.23464394 35.10942163 -51 22 C-48.89698032 13.148307 -43.59565741 4.98102406 -35.88671875 0.03125 C-25.08168224 -5.87460847 -10.66159344 -6.61692904 0 0 Z " fill="#101D2B" transform="translate(51,4)"/>
<path d="M0 0 C1.31291016 -0.05607422 1.31291016 -0.05607422 2.65234375 -0.11328125 C5.0625 0.3125 5.0625 0.3125 6.87890625 2.14453125 C8.0625 4.3125 8.0625 4.3125 8.0625 7.3125 C6.83768889 10.98693332 5.23732542 12.19594972 2.0625 14.3125 C5.0325 14.8075 5.0325 14.8075 8.0625 15.3125 C8.0625 16.9625 8.0625 18.6125 8.0625 20.3125 C2.4525 20.3125 -3.1575 20.3125 -8.9375 20.3125 C-6.70138889 13.60416667 -6.70138889 13.60416667 -3.375 11.125 C-0.36993747 8.86366563 -0.36993747 8.86366563 1.0625 5.3125 C0.4025 5.3125 -0.2575 5.3125 -0.9375 5.3125 C-1.2675 5.9725 -1.5975 6.6325 -1.9375 7.3125 C-3.9175 7.3125 -5.8975 7.3125 -7.9375 7.3125 C-7.5625 4.375 -7.5625 4.375 -6.9375 1.3125 C-4.4933206 0.0904103 -2.72720128 0.07608932 0 0 Z " fill="#2A7755" transform="translate(24.9375,22.6875)"/>
<path d="M0 0 C0 3.96 0 7.92 0 12 C0.99 12 1.98 12 3 12 C3 13.65 3 15.3 3 17 C2.01 17 1.02 17 0 17 C0 17.99 0 18.98 0 20 C-1.65 20 -3.3 20 -5 20 C-5 19.01 -5 18.02 -5 17 C-8.3 17 -11.6 17 -15 17 C-15.52669018 11.62137607 -14.26768932 9.25669096 -10.875 5.125 C-9.72644531 3.67480469 -9.72644531 3.67480469 -8.5546875 2.1953125 C-6 0 -6 0 0 0 Z M-6 7 C-7.03013277 8.64821244 -8.03114628 10.31503702 -9 12 C-7.68 12 -6.36 12 -5 12 C-5 10.35 -5 8.7 -5 7 C-5.33 7 -5.66 7 -6 7 Z " fill="#2B7756" transform="translate(49,23)"/>
<path d="M0 0 C1.67542976 0.28604898 3.34385343 0.61781233 5 1 C4.67 2.98 4.34 4.96 4 7 C0.25 8.125 0.25 8.125 -2 7 C-1.125 1.125 -1.125 1.125 0 0 Z " fill="#101D2B" transform="translate(56,48)"/>
<path d="M0 0 C1.65 0 3.3 0 5 0 C5.93423645 3.01031744 6.04449911 3.86650268 5 7 C3.0625 7.8125 3.0625 7.8125 1 8 C0.34 7.34 -0.32 6.68 -1 6 C-0.625 2.875 -0.625 2.875 0 0 Z " fill="#101D2B" transform="translate(60,39)"/>
<path d="M0 0 C2.4375 0.75 2.4375 0.75 5 2 C5.875 4.0625 5.875 4.0625 6 6 C5 7 5 7 2.5625 7.1875 C0 7 0 7 -2 5 C-1.46428571 1.46428571 -1.46428571 1.46428571 0 0 Z " fill="#101D2A" transform="translate(18,57)"/>
<path d="M0 0 C1.32 0.66 2.64 1.32 4 2 C3.75 3.875 3.75 3.875 3 6 C0.9375 7.25 0.9375 7.25 -1 8 C-1.99 7.34 -2.98 6.68 -4 6 C-3.6875 4.125 -3.6875 4.125 -3 2 C-2.01 1.34 -1.02 0.68 0 0 Z " fill="#101D2A" transform="translate(50,55)"/>
<path d="M0 0 C1.98 0 3.96 0 6 0 C6.625 1.875 6.625 1.875 7 4 C6.34 4.66 5.68 5.32 5 6 C1.875 5.625 1.875 5.625 -1 5 C-0.67 3.35 -0.34 1.7 0 0 Z " fill="#101D2A" transform="translate(27,61)"/>
<path d="M0 0 C0.78375 0.04125 1.5675 0.0825 2.375 0.125 C2.75718767 1.78114657 3.08895102 3.44957024 3.375 5.125 C2.375 6.125 2.375 6.125 -0.6875 6.1875 C-1.656875 6.166875 -2.62625 6.14625 -3.625 6.125 C-4.25 4.25 -4.25 4.25 -4.625 2.125 C-2.625 0.125 -2.625 0.125 0 0 Z " fill="#101D2A" transform="translate(40.625,59.875)"/>
</svg>
