<svg xmlns="http://www.w3.org/2000/svg" width="35.216" height="33.109" viewBox="0 0 35.216 33.109">
  <g id="boxes-svgrepo-com" transform="translate(0.749 0.75)">
    <path id="Path_34564" data-name="Path 34564" d="M6.5,8.293A3.793,3.793,0,0,1,10.293,4.5H23.779a3.793,3.793,0,0,1,3.793,3.793V19.251H10.293A3.793,3.793,0,0,1,6.5,15.458Z" transform="translate(-2.285 -4.5)" fill="none" stroke="#545454" stroke-width="1.5"/>
    <path id="Path_34565" data-name="Path 34565" d="M4.5,15.293A3.793,3.793,0,0,1,8.293,11.5H21.358V28.358H8.293A3.793,3.793,0,0,1,4.5,24.565Z" transform="translate(-4.499 3.251)" fill="none" stroke="#545454" stroke-width="1.5"/>
    <path id="Path_34566" data-name="Path 34566" d="M12.5,11.5H25.565a3.793,3.793,0,0,1,3.793,3.793v9.272a3.793,3.793,0,0,1-3.793,3.793H12.5Z" transform="translate(4.359 3.251)" fill="none" stroke="#545454" stroke-width="1.5"/>
    <path id="Path_34567" data-name="Path 34567" d="M16.5,11.5v6.322" transform="translate(8.788 3.251)" fill="none" stroke="#545454" stroke-linecap="round" stroke-width="1.5"/>
    <path id="Path_34568" data-name="Path 34568" d="M8.5,11.5v6.322" transform="translate(-0.07 3.251)" fill="none" stroke="#545454" stroke-linecap="round" stroke-width="1.5"/>
    <path id="Path_34569" data-name="Path 34569" d="M11.5,4.5v6.322" transform="translate(3.252 -4.5)" fill="none" stroke="#545454" stroke-linecap="round" stroke-width="1.5"/>
  </g>
</svg>
