<?xml version="1.0" encoding="UTF-8"?>
<svg version="1.1" xmlns="http://www.w3.org/2000/svg" width="74" height="70">
<path d="M0 0 C4.12597973 2.38586307 6.79885988 4.91703983 9.4375 8.875 C9.4375 9.535 9.4375 10.195 9.4375 10.875 C10.02917969 10.81699219 10.62085938 10.75898438 11.23046875 10.69921875 C17.7455804 10.32723032 17.7455804 10.32723032 21.4375 13.25 C24.19885162 16.874274 24.84862897 19.14564939 24.78125 23.76953125 C24.14603642 27.66021443 22.36402961 29.26657143 19.4375 31.875 C16.125 32.75 16.125 32.75 13.4375 32.875 C13.56784494 34.74553397 13.56784494 34.74553397 14.4375 36.875 C15.2625 37.4525 16.0875 38.03 16.9375 38.625 C19.97061674 41.35480507 20.36741035 42.9422881 20.6484375 46.90625 C20.30616161 50.10082498 18.71126123 51.73116798 16.4375 53.875 C13.29878812 55.44435594 10.89894178 55.22701103 7.4375 54.875 C4.50697769 52.87975077 2.79228497 51.44663515 1.9921875 47.90234375 C1.79121969 44.31841772 2.15507521 42.25156639 4.3125 39.375 C6.4375 37.875 6.4375 37.875 8.4375 37.875 C8.4375 36.225 8.4375 34.575 8.4375 32.875 C2.1675 32.875 -4.1025 32.875 -10.5625 32.875 C-10.5625 38.485 -10.5625 44.095 -10.5625 49.875 C-8.9125 50.535 -7.2625 51.195 -5.5625 51.875 C-3.19544364 55.03107514 -3.09119011 58.02596927 -3.5625 61.875 C-5.10830975 64.77339328 -6.28366462 66.41579398 -9.43359375 67.546875 C-13.35274461 68.28773528 -15.022433 68.20823283 -18.5 66.0625 C-21.10997471 63.29434501 -21.50491186 62.38369523 -21.9375 58.5625 C-21.5625 54.875 -21.5625 54.875 -19.08984375 52.6953125 C-15.65912414 48.86690514 -15.78942147 46.02628011 -15.75 41.0625 C-15.688125 38.360625 -15.62625 35.65875 -15.5625 32.875 C-21.5025 32.875 -27.4425 32.875 -33.5625 32.875 C-33.5625 34.525 -33.5625 36.175 -33.5625 37.875 C-32.94375 38.143125 -32.325 38.41125 -31.6875 38.6875 C-29.5625 39.875 -29.5625 39.875 -27.5625 42.875 C-27.22987752 46.78331419 -27.33221439 49.58826332 -29.5625 52.875 C-33.23031672 55.32021115 -36.29703233 55.59737759 -40.5625 54.875 C-42.99369623 53.00484906 -44.20319173 51.59361655 -45.5625 48.875 C-45.99494838 44.9829646 -45.85675531 43.32619147 -43.6875 40 C-42.98625 39.29875 -42.285 38.5975 -41.5625 37.875 C-40.9025 37.875 -40.2425 37.875 -39.5625 37.875 C-39.5625 36.225 -39.5625 34.575 -39.5625 32.875 C-40.284375 32.813125 -41.00625 32.75125 -41.75 32.6875 C-45.69639222 31.54743114 -47.16875391 30.22624453 -49.5625 26.875 C-50.50653042 21.91884031 -50.33830059 18.14214096 -47.6875 13.8125 C-44.61117894 11.00761903 -43.00048342 10.75445738 -38.9375 10.8125 C-37.71160156 10.82603516 -37.71160156 10.82603516 -36.4609375 10.83984375 C-35.52121094 10.85724609 -35.52121094 10.85724609 -34.5625 10.875 C-34.3975 10.17375 -34.2325 9.4725 -34.0625 8.75 C-27.85318597 -3.15118523 -11.26952198 -5.2624945 0 0 Z M-28.5 9.875 C-30.31429593 12.5139759 -30.94722328 13.86985897 -31.5625 16.875 C-32.24957031 16.76800781 -32.93664063 16.66101562 -33.64453125 16.55078125 C-34.54558594 16.43089844 -35.44664063 16.31101562 -36.375 16.1875 C-37.71498047 15.99607422 -37.71498047 15.99607422 -39.08203125 15.80078125 C-41.59557028 15.64446434 -41.59557028 15.64446434 -43.359375 17.16796875 C-45.22509336 19.81510812 -45.02050593 21.73438794 -44.5625 24.875 C-41.52300543 27.87944087 -39.22273458 28.25579898 -35.03125 28.27905273 C-33.92330078 28.29173691 -32.81535156 28.30442108 -31.67382812 28.31748962 C-30.48208984 28.31455399 -29.29035156 28.31161835 -28.0625 28.30859375 C-26.83466797 28.3138356 -25.60683594 28.31907745 -24.34179688 28.32447815 C-21.74610144 28.33090099 -19.15037692 28.32955801 -16.5546875 28.32104492 C-12.57759959 28.31253232 -8.60194608 28.34130021 -4.625 28.37304688 C-2.1041671 28.37465884 0.41666835 28.37408145 2.9375 28.37109375 C4.12923828 28.38232773 5.32097656 28.39356171 6.54882812 28.40513611 C8.21075195 28.39106468 8.21075195 28.39106468 9.90625 28.37670898 C10.88013672 28.37654282 11.85402344 28.37637665 12.85742188 28.37620544 C16.18680476 27.72944021 17.40491719 26.54640047 19.4375 23.875 C19.28955998 20.1764996 19.07944427 18.51694427 16.4375 15.875 C13.99737051 15.63212511 13.99737051 15.63212511 11.3125 15.75 C10.40242188 15.76804687 9.49234375 15.78609375 8.5546875 15.8046875 C7.85601562 15.82789063 7.15734375 15.85109375 6.4375 15.875 C6.06625 14.988125 5.695 14.10125 5.3125 13.1875 C2.7729449 8.70095265 -0.38928744 6.14270732 -4.8125 3.5625 C-13.88174793 1.29518802 -22.15551061 2.73291765 -28.5 9.875 Z M-39.375 43.0625 C-40.81540328 44.82554109 -40.81540328 44.82554109 -40.25 47.0625 C-40.023125 47.660625 -39.79625 48.25875 -39.5625 48.875 C-37.16530568 49.55458603 -37.16530568 49.55458603 -34.5625 49.875 C-33.9025 49.215 -33.2425 48.555 -32.5625 47.875 C-32.88291397 45.27219432 -32.88291397 45.27219432 -33.5625 42.875 C-36.56998915 41.71637694 -36.56998915 41.71637694 -39.375 43.0625 Z M9.4375 41.875 C8.7775 42.535 8.1175 43.195 7.4375 43.875 C7.75791397 46.47780568 7.75791397 46.47780568 8.4375 48.875 C10.27450789 49.64742269 10.27450789 49.64742269 12.4375 49.875 C14.35416667 48.79166667 14.35416667 48.79166667 15.4375 46.875 C15.20992269 44.71200789 15.20992269 44.71200789 14.4375 42.875 C12.04030568 42.19541397 12.04030568 42.19541397 9.4375 41.875 Z M-14.5625 54.875 C-15.2225 55.535 -15.8825 56.195 -16.5625 56.875 C-16.24208603 59.47780568 -16.24208603 59.47780568 -15.5625 61.875 C-14.5725 62.205 -13.5825 62.535 -12.5625 62.875 C-10.37211577 61.50331762 -10.37211577 61.50331762 -8.5625 59.875 C-8.8925 58.555 -9.2225 57.235 -9.5625 55.875 C-11.95969432 55.19541397 -11.95969432 55.19541397 -14.5625 54.875 Z " fill="#101D2B" transform="translate(49.5625,2.125)"/>
</svg>
