<svg xmlns="http://www.w3.org/2000/svg" width="36.878" height="34.709" viewBox="0 0 36.878 34.709">
  <path id="cloud-network-svgrepo-com" d="M10.84,11.357A11.974,11.974,0,0,1,21.939,4.5c5.068,0,9.444,2.652,11.116,6.85a5.424,5.424,0,1,1,1.9,10.5V24.33a4.339,4.339,0,1,1-2.169,0V21.854H23.024v8.814a4.339,4.339,0,1,1-2.169,0V21.854H11.093V24.33a4.339,4.339,0,1,1-2.169,0V21.854a5.423,5.423,0,1,1,1.917-10.5Zm1.645,1.82c1.067-3.679,4.839-6.507,9.454-6.507,4.766,0,8.468,2.7,9.42,6.47a1.122,1.122,0,0,0,1.715.637,3.254,3.254,0,1,1,1.882,5.909H8.923a3.254,3.254,0,1,1,1.78-5.978,1.6,1.6,0,0,0,.438.209A1.085,1.085,0,0,0,12.485,13.176ZM7.839,28.532A2.169,2.169,0,1,1,10.008,30.7,2.169,2.169,0,0,1,7.839,28.532Zm23.862,0A2.169,2.169,0,1,1,33.87,30.7,2.169,2.169,0,0,1,31.7,28.532ZM21.939,32.7a2.169,2.169,0,1,0,2.169,2.169A2.169,2.169,0,0,0,21.939,32.7Z" transform="translate(-3.5 -4.5)" fill="#111d2b" fill-rule="evenodd"/>
</svg>
