<svg xmlns="http://www.w3.org/2000/svg" width="21.436" height="20.217" viewBox="0 0 21.436 20.217">
  <path id="cloud-network-svgrepo-com" d="M7.7,8.422A6.849,6.849,0,0,1,14.046,4.5,6.635,6.635,0,0,1,20.4,8.418a3.1,3.1,0,1,1,1.087,6.008v1.416a2.482,2.482,0,1,1-1.241,0V14.426H14.667v5.041a2.482,2.482,0,1,1-1.241,0V14.426H7.843v1.416a2.482,2.482,0,1,1-1.241,0V14.426a3.1,3.1,0,1,1,1.1-6Zm.941,1.041a5.509,5.509,0,0,1,5.407-3.722,5.273,5.273,0,0,1,5.388,3.7.642.642,0,0,0,.981.364,1.861,1.861,0,1,1,1.076,3.38H6.6A1.861,1.861,0,1,1,7.62,9.766a.917.917,0,0,0,.25.12A.62.62,0,0,0,8.639,9.462ZM5.982,18.245a1.241,1.241,0,1,1,1.241,1.241A1.241,1.241,0,0,1,5.982,18.245Zm13.648,0a1.241,1.241,0,1,1,1.241,1.241A1.241,1.241,0,0,1,19.63,18.245ZM14.046,20.63a1.241,1.241,0,1,0,1.241,1.241A1.241,1.241,0,0,0,14.046,20.63Z" transform="matrix(1, -0.017, 0.017, 1, -3.578, -4.07)" fill="#fff" fill-rule="evenodd"/>
</svg>
