<svg xmlns="http://www.w3.org/2000/svg" width="49.995" height="49.503" viewBox="0 0 49.995 49.503">
  <g id="credit-card-svgrepo-com_1_" data-name="credit-card-svgrepo-com (1)" transform="translate(-0.25 -0.402)">
    <path id="Path_35985" data-name="Path 35985" d="M46.837,23.747,44.673,4.09a3.3,3.3,0,0,0-3.637-2.915L6.09,5.022A3.3,3.3,0,0,0,3.175,8.659l.415,3.765" transform="translate(2.58 0)" fill="none" stroke="#000" stroke-linecap="round" stroke-linejoin="round" stroke-width="1.5"/>
    <path id="Path_35986" data-name="Path 35986" d="M39.538,9H4.211A3.225,3.225,0,0,0,1,12.238V36.524a3.225,3.225,0,0,0,3.211,3.238H39.538a3.225,3.225,0,0,0,3.211-3.238V12.238A3.225,3.225,0,0,0,39.538,9Z" transform="translate(0 9.393)" fill="none" stroke="#000" stroke-linecap="round" stroke-linejoin="round" stroke-width="1.5"/>
    <path id="Path_35987" data-name="Path 35987" d="M1,19H42.749" transform="translate(0 21.366)" fill="none" stroke="#000" stroke-linecap="round" stroke-linejoin="round" stroke-width="1.5"/>
    <path id="Path_35988" data-name="Path 35988" d="M5,13H9.395" transform="translate(4.789 14.182)" fill="none" stroke="#000" stroke-linecap="round" stroke-linejoin="round" stroke-width="1.5"/>
    <path id="Path_35989" data-name="Path 35989" d="M7.414,6.912l4.914-.541" transform="translate(7.679 6.245)" fill="none" stroke="#000" stroke-linecap="round" stroke-linejoin="round" stroke-width="1.5"/>
  </g>
</svg>
