<svg xmlns="http://www.w3.org/2000/svg" width="34.525" height="34.525" viewBox="0 0 34.525 34.525">
  <path id="dashboard-svgrepo-com_1_" data-name="dashboard-svgrepo-com (1)" d="M4.316,2.877A1.439,1.439,0,0,0,2.877,4.316V8.631A1.439,1.439,0,0,0,4.316,10.07H8.631A1.439,1.439,0,0,0,10.07,8.631V4.316A1.439,1.439,0,0,0,8.631,2.877ZM4.316,0H8.631a4.316,4.316,0,0,1,4.316,4.316V8.631a4.316,4.316,0,0,1-4.316,4.316H4.316A4.316,4.316,0,0,1,0,8.631V4.316A4.316,4.316,0,0,1,4.316,0ZM20.14,23.017H30.21a4.316,4.316,0,0,1,4.316,4.316V30.21a4.316,4.316,0,0,1-4.316,4.316H20.14a4.316,4.316,0,0,1-4.316-4.316V27.333A4.316,4.316,0,0,1,20.14,23.017Zm0,2.877A1.439,1.439,0,0,0,18.7,27.333V30.21a1.439,1.439,0,0,0,1.439,1.439H30.21a1.439,1.439,0,0,0,1.439-1.439V27.333a1.439,1.439,0,0,0-1.439-1.439ZM4.316,15.824H8.631a4.316,4.316,0,0,1,4.316,4.316V30.21a4.316,4.316,0,0,1-4.316,4.316H4.316A4.316,4.316,0,0,1,0,30.21V20.14A4.316,4.316,0,0,1,4.316,15.824Zm0,2.877A1.439,1.439,0,0,0,2.877,20.14V30.21a1.439,1.439,0,0,0,1.439,1.439H8.631A1.439,1.439,0,0,0,10.07,30.21V20.14A1.439,1.439,0,0,0,8.631,18.7ZM30.21,0a4.316,4.316,0,0,1,4.316,4.316V15.824A4.316,4.316,0,0,1,30.21,20.14H20.14a4.316,4.316,0,0,1-4.316-4.316V4.316A4.316,4.316,0,0,1,20.14,0ZM18.7,4.316V15.824a1.439,1.439,0,0,0,1.439,1.439H30.21a1.439,1.439,0,0,0,1.439-1.439V4.316A1.439,1.439,0,0,0,30.21,2.877H20.14A1.439,1.439,0,0,0,18.7,4.316Z" fill="#fff" fill-rule="evenodd" opacity="0.65"/>
</svg>
