<svg xmlns="http://www.w3.org/2000/svg" width="23.95" height="29.438" viewBox="0 0 23.95 29.438">
  <g id="database-svgrepo-com_1_" data-name="database-svgrepo-com (1)" transform="translate(-3 -1)">
    <path id="Path_35514" data-name="Path 35514" d="M4,22.463V6" transform="translate(0 1.487)" fill="none" stroke="#828990" stroke-linecap="round" stroke-width="2"/>
    <path id="Path_35515" data-name="Path 35515" d="M20,12v8.231" transform="translate(5.95 3.719)" fill="none" stroke="#828990" stroke-linecap="round" stroke-width="2"/>
    <path id="Path_35516" data-name="Path 35516" d="M14.975,12.975c6.061,0,10.975-2.457,10.975-5.487S21.036,2,14.975,2,4,4.457,4,7.488,8.914,12.975,14.975,12.975Z" fill="none" stroke="#828990" stroke-width="2"/>
    <path id="Path_35517" data-name="Path 35517" d="M25.95,12c0,3.031-4.914,5.488-10.975,5.488S4,15.031,4,12" transform="translate(0 3.719)" fill="none" stroke="#828990" stroke-linecap="round" stroke-width="2"/>
    <path id="Path_35518" data-name="Path 35518" d="M25.95,18c0,3.031-4.914,5.488-10.975,5.488S4,21.031,4,18" transform="translate(0 5.95)" fill="none" stroke="#828990" stroke-width="2"/>
  </g>
</svg>
