<svg xmlns="http://www.w3.org/2000/svg" width="34.146" height="34.146" viewBox="0 0 34.146 34.146">
  <path id="dataflow-03-svgrepo-com" d="M16.691,6.081H28.607c1.828,0,2.743,0,3.441.356a3.264,3.264,0,0,1,1.427,1.427c.356.7.356,1.613.356,3.441v2.122a8.144,8.144,0,0,1-.248,2.882,3.265,3.265,0,0,1-1.767,1.767,8.144,8.144,0,0,1-2.882.248M19.956,30.566H8.04c-1.828,0-2.743,0-3.441-.356a3.264,3.264,0,0,1-1.427-1.427c-.356-.7-.356-1.613-.356-3.441V23.22a8.142,8.142,0,0,1,.249-2.882,3.265,3.265,0,0,1,1.767-1.767,8.144,8.144,0,0,1,2.882-.248M15.548,22.4H21.1a2.028,2.028,0,0,0,.86-.089.815.815,0,0,0,.357-.357,2.028,2.028,0,0,0,.089-.86v-5.55a2.028,2.028,0,0,0-.089-.86.816.816,0,0,0-.357-.357,2.028,2.028,0,0,0-.86-.089h-5.55a2.028,2.028,0,0,0-.86.089.816.816,0,0,0-.357.357,2.028,2.028,0,0,0-.089.86V21.1a2.028,2.028,0,0,0,.089.86.816.816,0,0,0,.357.357A2.028,2.028,0,0,0,15.548,22.4ZM27.791,34.646h5.55a2.028,2.028,0,0,0,.86-.089.815.815,0,0,0,.357-.357,2.028,2.028,0,0,0,.089-.86v-5.55a2.028,2.028,0,0,0-.089-.86.815.815,0,0,0-.357-.357,2.028,2.028,0,0,0-.86-.089h-5.55a2.028,2.028,0,0,0-.86.089.815.815,0,0,0-.357.357,2.028,2.028,0,0,0-.089.86v5.55a2.028,2.028,0,0,0,.089.86.815.815,0,0,0,.357.357A2.028,2.028,0,0,0,27.791,34.646ZM3.306,10.162h5.55a2.028,2.028,0,0,0,.86-.089.816.816,0,0,0,.357-.357,2.028,2.028,0,0,0,.089-.86V3.306a2.028,2.028,0,0,0-.089-.86.816.816,0,0,0-.357-.357A2.028,2.028,0,0,0,8.856,2H3.306a2.028,2.028,0,0,0-.86.089.816.816,0,0,0-.357.357A2.028,2.028,0,0,0,2,3.306v5.55a2.028,2.028,0,0,0,.089.86.816.816,0,0,0,.357.357A2.028,2.028,0,0,0,3.306,10.162Z" transform="translate(-1.25 -1.25)" fill="none" stroke="#fff" stroke-linecap="round" stroke-linejoin="round" stroke-width="1.5" opacity="0.89"/>
</svg>
