<svg xmlns="http://www.w3.org/2000/svg" width="55" height="55" viewBox="0 0 55 55">
  <g id="data-apis-svgrepo-com" transform="translate(0 0.146)">
    <path id="data--apis_1_" d="M45.345,52.74a7.389,7.389,0,0,1-5.639-12.17l-5.836-5.836a10.768,10.768,0,0,1-14.36,0l-5.836,5.836a7.438,7.438,0,1,1-.865-.862l5.836-5.836a10.77,10.77,0,0,1,0-14.36L12.81,13.675a7.4,7.4,0,1,1,.865-.865l5.836,5.836a10.768,10.768,0,0,1,14.358,0L39.7,12.812a7.418,7.418,0,1,1,.865.863l-5.836,5.836a10.763,10.763,0,0,1,0,14.358L40.57,39.7A7.393,7.393,0,1,1,45.345,52.74Zm0-13.568a6.173,6.173,0,1,0,6.173,6.173A6.18,6.18,0,0,0,45.345,39.172Zm-37.311,0a6.173,6.173,0,1,0,6.173,6.173A6.18,6.18,0,0,0,8.034,39.172ZM26.69,17.125a9.565,9.565,0,1,0,9.565,9.565A9.576,9.576,0,0,0,26.69,17.125ZM45.345,1.861a6.173,6.173,0,1,0,6.173,6.173A6.18,6.18,0,0,0,45.345,1.861Zm-37.311,0a6.173,6.173,0,1,0,6.173,6.173A6.18,6.18,0,0,0,8.034,1.861Z" transform="translate(0.445 0.445)"/>
    <rect id="_Transparent_Rectangle" width="55" height="55" transform="translate(0 -0.146)" fill="none"/>
  </g>
</svg>
