<svg xmlns="http://www.w3.org/2000/svg" width="53.013" height="56.043" viewBox="0 0 53.013 56.043">
  <g id="database-stats-svgrepo-com" transform="translate(-3.25 -2.25)">
    <path id="Path_35990" data-name="Path 35990" d="M4,6V24.181s0,9.091,21.211,9.091,21.211-9.091,21.211-9.091V6" transform="translate(0 6.091)" fill="none" stroke="#000" stroke-linecap="round" stroke-linejoin="round" stroke-width="1.5"/>
    <path id="Path_35991" data-name="Path 35991" d="M25.211,3c21.211,0,21.211,9.091,21.211,9.091s0,9.091-21.211,9.091S4,12.091,4,12.091,4,3,25.211,3Z" transform="translate(0 0)" fill="none" stroke="#000" stroke-linecap="round" stroke-linejoin="round" stroke-width="1.5"/>
    <path id="Path_35992" data-name="Path 35992" d="M25.211,39.272C4,39.272,4,30.181,4,30.181V12" transform="translate(0 18.272)" fill="none" stroke="#000" stroke-linecap="round" stroke-linejoin="round" stroke-width="1.5"/>
    <path id="Path_35993" data-name="Path 35993" d="M15,25.06V19" transform="translate(22.332 32.483)" fill="none" stroke="#000" stroke-linecap="round" stroke-width="1.5"/>
    <path id="Path_35994" data-name="Path 35994" d="M18,29.121V17" transform="translate(28.422 28.422)" fill="none" stroke="#000" stroke-linecap="round" stroke-width="1.5"/>
    <path id="Path_35995" data-name="Path 35995" d="M21,33.181V15" transform="translate(34.513 24.362)" fill="none" stroke="#000" stroke-linecap="round" stroke-width="1.5"/>
  </g>
</svg>
