<svg xmlns="http://www.w3.org/2000/svg" width="59" height="59" viewBox="0 0 59 59">
  <g id="devops-svgrepo-com" transform="translate(0 0.235)">
    <path id="devops_1_" d="M31.884,57.431H24.489a.666.666,0,0,1-.577-.335l-3.7-6.4a.665.665,0,0,1,0-.664l3.7-6.4a.668.668,0,0,1,.577-.335H31.5l5.354-9.273A.665.665,0,1,1,38,34.681l-5.354,9.275,3.505,6.071a.665.665,0,0,1,0,.664l-3.7,6.4A.659.659,0,0,1,31.884,57.431ZM24.874,56.1H31.5l3.313-5.738L31.5,44.623H24.874l-3.313,5.738Zm25.5-9.33H42.976a.666.666,0,0,1-.577-.335l-3.7-6.406a.665.665,0,0,1,0-.664l3.505-6.071-5.354-9.273A.666.666,0,0,1,38,23.354l5.354,9.273H50.37a.666.666,0,0,1,.577.335l3.7,6.4a.665.665,0,0,1,0,.664l-3.7,6.406A.67.67,0,0,1,50.37,46.769Zm-7.01-1.333h6.626L53.3,39.7,49.986,33.96H43.36L40.048,39.7ZM13.4,46.769H6a.666.666,0,0,1-.577-.335l-3.7-6.406a.665.665,0,0,1,0-.664l3.7-6.4A.67.67,0,0,1,6,32.627H13.4a.666.666,0,0,1,.577.335l3.505,6.069H28.187a.666.666,0,0,1,0,1.331H17.479l-3.505,6.071A.668.668,0,0,1,13.4,46.769Zm-7.01-1.333h6.626L16.326,39.7,13.013,33.96H6.387L3.075,39.7ZM18.943,35.049a.658.658,0,0,1-.577-.335l-5.354-9.273H6a.665.665,0,0,1-.577-.333l-3.7-6.4a.668.668,0,0,1,0-.666l3.7-6.4A.668.668,0,0,1,6,11.3H13.4a.665.665,0,0,1,.577.333l3.7,6.4a.668.668,0,0,1,0,.666l-3.505,6.071,5.354,9.275a.665.665,0,0,1-.244.908A.653.653,0,0,1,18.943,35.049ZM6.387,24.11h6.626l3.313-5.738-3.313-5.738H6.387L3.075,18.372ZM50.37,25.441H42.976a.665.665,0,0,1-.577-.333l-3.505-6.073H28.187a.666.666,0,1,1,0-1.331H38.894L42.4,11.634a.666.666,0,0,1,.577-.333H50.37a.665.665,0,0,1,.577.333l3.7,6.4a.668.668,0,0,1,0,.666l-3.7,6.4A.662.662,0,0,1,50.37,25.441ZM43.36,24.11h6.626L53.3,18.372l-3.313-5.738H43.36l-3.313,5.738Zm-24.417.274a.665.665,0,0,1-.577-1l5.354-9.273L20.215,8.042a.668.668,0,0,1,0-.666l3.7-6.4A.665.665,0,0,1,24.489.64h7.395a.665.665,0,0,1,.577.333l3.7,6.4a.668.668,0,0,1,0,.666l-3.7,6.4a.665.665,0,0,1-.577.333h-7.01L19.52,24.053A.667.667,0,0,1,18.943,24.384Zm5.93-10.937H31.5l3.313-5.738L31.5,1.971H24.874L21.561,7.709Z" transform="translate(1.392 0.543)"/>
    <rect id="_Transparent_Rectangle" width="59" height="59" transform="translate(0 -0.235)" fill="none"/>
  </g>
</svg>
