<svg xmlns="http://www.w3.org/2000/svg" width="37.329" height="37.328" viewBox="0 0 37.329 37.328">
  <g id="Group_19286" data-name="Group 19286" transform="translate(-1458.462 -1045.436)">
    <g id="menu-2-svgrepo-com_1_" data-name="menu-2-svgrepo-com (1)" transform="translate(1456.212 1042.866)">
      <path id="Path_36483" data-name="Path 36483" d="M12.952,3.32H6.981A3.981,3.981,0,0,0,3,7.3v5.971a3.981,3.981,0,0,0,3.981,3.981h5.971a3.981,3.981,0,0,0,3.981-3.981V7.3A3.981,3.981,0,0,0,12.952,3.32Z" transform="translate(0 0)" fill="none" stroke="#545454" stroke-linecap="round" stroke-linejoin="round" stroke-width="1.5"/>
      <path id="Path_36484" data-name="Path 36484" d="M23.952,14.32H17.981A3.981,3.981,0,0,0,14,18.3v5.971a3.981,3.981,0,0,0,3.981,3.981h5.971a3.981,3.981,0,0,0,3.981-3.981V18.3A3.981,3.981,0,0,0,23.952,14.32Z" transform="translate(10.895 10.895)" fill="none" stroke="#545454" stroke-linecap="round" stroke-linejoin="round" stroke-width="1.5"/>
      <path id="Path_36485" data-name="Path 36485" d="M12.952,14.32H6.981A3.981,3.981,0,0,0,3,18.3v5.971a3.981,3.981,0,0,0,3.981,3.981h5.971a3.981,3.981,0,0,0,3.981-3.981V18.3A3.981,3.981,0,0,0,12.952,14.32Z" transform="translate(0 10.895)" fill="none" stroke="#545454" stroke-linecap="round" stroke-linejoin="round" stroke-width="1.5"/>
    </g>
    <line id="Line_2362" data-name="Line 2362" x1="12" y2="12" transform="translate(1481.5 1047.5)" fill="none" stroke="#545454" stroke-linecap="round" stroke-width="1.5"/>
    <line id="Line_2363" data-name="Line 2363" x1="12" y1="12" transform="translate(1481.5 1047.5)" fill="none" stroke="#545454" stroke-linecap="round" stroke-width="1.5"/>
  </g>
</svg>
