<svg xmlns="http://www.w3.org/2000/svg" width="39.984" height="39.976" viewBox="0 0 39.984 39.976">
  <g id="duplicate-alt-svgrepo-com" transform="translate(0.25 0.247)">
    <path id="Path_36478" data-name="Path 36478" d="M29.363,28.553V9.311A4.811,4.811,0,0,0,24.553,4.5H5.311A4.811,4.811,0,0,0,.5,9.311V28.553a4.811,4.811,0,0,0,4.811,4.811H24.553A4.811,4.811,0,0,0,29.363,28.553Z" transform="translate(0 5.616)" fill="none" stroke="#545454" stroke-linecap="round" stroke-linejoin="round" stroke-width="1.5" fill-rule="evenodd"/>
    <path id="Path_36479" data-name="Path 36479" d="M23.742,29.358h4.811a4.811,4.811,0,0,0,4.811-4.811V5.314A4.811,4.811,0,0,0,28.553.5h-.008L9.3.537A4.811,4.811,0,0,0,4.5,5.347v4.769" transform="translate(5.621 0)" fill="none" stroke="#545454" stroke-linecap="round" stroke-linejoin="round" stroke-width="1.5" fill-rule="evenodd"/>
    <path id="Path_36480" data-name="Path 36480" d="M6.5,7.5V21.932" transform="translate(8.432 9.832)" fill="none" stroke="#545454" stroke-linecap="round" stroke-linejoin="round" stroke-width="1.5" fill-rule="evenodd"/>
    <path id="Path_36481" data-name="Path 36481" d="M0,0V14.432" transform="translate(22.147 24.548) rotate(90)" fill="none" stroke="#545454" stroke-linecap="round" stroke-linejoin="round" stroke-width="1.5" fill-rule="evenodd"/>
  </g>
</svg>
