<svg xmlns="http://www.w3.org/2000/svg" width="26.112" height="34.312" viewBox="0 0 26.112 34.312">
  <g id="exchange-change-svgrepo-com" transform="translate(-58.601 0)" opacity="0.83">
    <g id="Group_19242" data-name="Group 19242" transform="translate(58.601 0)">
      <g id="Group_19241" data-name="Group 19241" transform="translate(0 0)">
        <path id="Path_36366" data-name="Path 36366" d="M64.019,29.1a3.655,3.655,0,0,1-3.925-3.463V8.731a3.221,3.221,0,0,1,3.194-3.515H74.705L72.25,7.671a.744.744,0,1,0,1.037,1.067l.015-.015,3.731-3.731a.743.743,0,0,0,0-1.052L73.3.209A.75.75,0,0,0,72.25.223a.753.753,0,0,0,0,1.037l2.463,2.455H63.295A4.706,4.706,0,0,0,58.6,8.731v16.9a5.149,5.149,0,0,0,5.418,4.955.746.746,0,1,0,0-1.493Z" transform="translate(-58.601 0)" fill="#fff"/>
        <path id="Path_36367" data-name="Path 36367" d="M199.031,53.215a.746.746,0,1,0,0,1.493c2.075,0,3.216,1.179,3.216,3.313V74.834c0,1.866-1,3.754-3.239,3.754h-9.888l2.455-2.455a.744.744,0,0,0-1.052-1.052l-3.731,3.731a.743.743,0,0,0,0,1.052l3.731,3.731a.744.744,0,0,0,1.052-1.052l-2.455-2.463H199c2.784,0,4.731-2.157,4.731-5.246V58.021C203.74,55.058,201.934,53.215,199.031,53.215Z" transform="translate(-177.621 -49.492)" fill="#fff"/>
      </g>
    </g>
  </g>
</svg>
