<svg xmlns="http://www.w3.org/2000/svg" width="12.007" height="22.208" viewBox="0 0 12.007 22.208">
  <path id="Path_25232" data-name="Path 25232" d="M33.632,0l-2.88,0c-3.239,0-5.326,2.145-5.326,5.466v2.52h-2.9a.453.453,0,0,0-.453.453V12.09a.453.453,0,0,0,.453.453h2.9v9.213a.453.453,0,0,0,.453.453h3.778a.453.453,0,0,0,.453-.453V12.542h3.385a.453.453,0,0,0,.453-.453V8.438a.454.454,0,0,0-.453-.453H30.109V5.849c0-1.026.245-1.548,1.582-1.548h1.94a.453.453,0,0,0,.453-.453V.458A.453.453,0,0,0,33.632,0Z" transform="translate(-22.077)"/>
</svg>
