<svg xmlns="http://www.w3.org/2000/svg" width="40.801" height="35.173" viewBox="0 0 40.801 35.173">
  <path id="factory-thin-svgrepo-com" d="M29.587,47.435a.7.7,0,0,1-.7.7H23.959a.7.7,0,1,1,0-1.407h4.924a.7.7,0,0,1,.7.7Zm11.255-.7H35.918a.7.7,0,1,0,0,1.407h4.924a.7.7,0,1,0,0-1.407ZM52.8,54.467a.7.7,0,0,1-.7.7H47.906c-.01,0-.019,0-.029,0s-.019,0-.029,0H16.954l-.029,0c-.01,0-.019,0-.029,0H12.7a.7.7,0,0,1,0-1.407h3.517v-21.8a.7.7,0,0,1,1.126-.563l10.13,7.6V31.959A.7.7,0,0,1,28.6,31.4l7.763,5.823,2.2-15.407A2.121,2.121,0,0,1,40.655,20h3.187a2.121,2.121,0,0,1,2.089,1.812L48.573,40.3c0,.017,0,.033,0,.05s0,.032,0,.049V53.764H52.1a.7.7,0,0,1,.7.7ZM37.649,38.182,39.67,39.7h7.4L44.539,22.011a.707.707,0,0,0-.7-.6H40.656a.707.707,0,0,0-.7.6ZM17.628,53.763H47.173V41.1H39.435a.7.7,0,0,1-.422-.141l-10.13-7.6V40.4a.7.7,0,0,1-1.126.563l-10.13-7.6Z" transform="translate(-12 -20)" fill="#545454"/>
</svg>
