<?xml version="1.0" encoding="UTF-8"?>
<svg version="1.1" xmlns="http://www.w3.org/2000/svg" width="65" height="58">
<path d="M0 0 C7.78769037 5.42513262 13.18639973 12.54082995 15 22 C16.01684912 32.45901956 14.2310496 41.22080773 7.9609375 49.78515625 C6 52 6 52 3.875 52.9375 C3.25625 52.958125 2.6375 52.97875 2 53 C1.34 52.34 0.68 51.68 0 51 C0.13006464 46.57780232 2.43426032 43.50203063 4.84375 39.96484375 C8.00029526 34.60084961 7.65059557 28.0106159 7 22 C4.41580543 13.92439198 0.25262709 9.64607908 -6.8125 5.25 C-13.83075062 2.49774486 -20.92328784 2.25981661 -28 5 C-34.81537673 8.85590683 -40.08816946 14.29235137 -42.375 21.875 C-44.0970368 30.56877803 -41.51135845 37.5653937 -37 45 C-36.34 45.66 -35.68 46.32 -35 47 C-35.375 49.625 -35.375 49.625 -36 52 C-37.485 52.495 -37.485 52.495 -39 53 C-44.47378306 49.8309677 -47.63119648 44.04614877 -49.62109375 38.1640625 C-51.22796747 28.98666 -50.99586362 19.04963549 -46 11 C-35.28521485 -3.50390367 -16.43218373 -9.97768961 0 0 Z " fill="#101D2B" transform="translate(50,4)"/>
<path d="M0 0 C1 1 1 1 1.0625 3.5625 C1.041875 4.366875 1.02125 5.17125 1 6 C-1.57637588 7.36907416 -4.15968104 8.72028455 -6.75 10.0625 C-7.47960938 10.45244141 -8.20921875 10.84238281 -8.9609375 11.24414062 C-10.02441406 11.79038086 -10.02441406 11.79038086 -11.109375 12.34765625 C-11.75874023 12.68804932 -12.40810547 13.02844238 -13.07714844 13.37915039 C-15.41991018 14.13558044 -16.70456573 13.78821819 -19 13 C-19.33 11.35 -19.66 9.7 -20 8 C-17.61072363 6.65359017 -15.2147427 5.32290947 -12.8125 4 C-12.13896484 3.6184375 -11.46542969 3.236875 -10.77148438 2.84375 C-7.08716375 0.83085288 -4.32557147 -0.65168685 0 0 Z " fill="#2A7756" transform="translate(49,22)"/>
</svg>
