<svg xmlns="http://www.w3.org/2000/svg" width="32.89" height="33.628" viewBox="0 0 32.89 33.628">
  <g id="appmanager-svgrepo-com" transform="translate(-10.636 -10.244)">
    <path id="Path_36085" data-name="Path 36085" d="M38.371,27.911a14.5,14.5,0,0,0,.117-1.6,14.075,14.075,0,0,0-.117-1.585l3.5-2.7a.816.816,0,0,0,.2-1.049L38.8,15.325a.816.816,0,0,0-1-.35l-4.055,1.643a12.061,12.061,0,0,0-2.832-1.608l-.606-4.323A.851.851,0,0,0,29.492,10h-6.5a.839.839,0,0,0-.816.688l-.583,4.323a12.131,12.131,0,0,0-2.762,1.608l-4.055-1.643a.839.839,0,0,0-1,.35l-3.263,5.652a.827.827,0,0,0,.2,1.049l3.438,2.7a11.933,11.933,0,0,0-.128,1.585,14.5,14.5,0,0,0,.1,1.6L10.684,30.6a.816.816,0,0,0-.2,1.049L13.749,37.3a.816.816,0,0,0,1,.35l4.055-1.643a11.653,11.653,0,0,0,2.785,1.608l.606,4.323a.839.839,0,0,0,.816.688h6.526a.827.827,0,0,0,.8-.688l.571-4.323a11.49,11.49,0,0,0,2.762-1.608l4.067,1.643a.8.8,0,0,0,.991-.35L42,31.651a.816.816,0,0,0-.2-1.049ZM26.252,32.024a5.71,5.71,0,1,1,5.71-5.71,5.71,5.71,0,0,1-5.71,5.71Z" transform="translate(0.806 0.744)" fill="none" stroke="#000" stroke-linecap="round" stroke-linejoin="round" stroke-width="1"/>
  </g>
</svg>
