<?xml version="1.0" encoding="UTF-8"?>
<svg version="1.1" xmlns="http://www.w3.org/2000/svg" width="65" height="70">
<path d="M0 0 C2.8100346 1.79363911 4.50940468 3.01880935 6 6 C6.11637184 7.82139348 6.16965308 9.64696423 6.19287109 11.47192383 C6.21696548 13.18929497 6.21696548 13.18929497 6.24154663 14.94136047 C6.28590947 20.1797205 6.327501 25.41799288 6.35009766 30.65649414 C6.36343269 33.42213043 6.39127554 36.18702808 6.43212891 38.95239258 C6.49093476 42.93308532 6.50875882 46.91341895 6.5234375 50.89453125 C6.54610687 52.13112991 6.56877625 53.36772858 6.59213257 54.64179993 C6.56856587 64.18718702 6.56856587 64.18718702 3.59228516 67.2565918 C-0.26806812 69.85282298 -2.31524609 70.36743168 -7 70 C-10.49406769 68.33237678 -11.82670681 67.25993978 -14 64 C-14.26742554 61.47097778 -14.26742554 61.47097778 -14.29052734 58.41455078 C-14.30328705 57.26971222 -14.31604675 56.12487366 -14.32919312 54.94534302 C-14.33141876 53.70783295 -14.33364441 52.47032288 -14.3359375 51.1953125 C-14.3425943 49.9240451 -14.3492511 48.65277771 -14.35610962 47.34298706 C-14.36624454 44.65120464 -14.37179056 41.95982598 -14.37060547 39.26806641 C-14.37040239 35.82570454 -14.39769118 32.38416934 -14.43214989 28.94200325 C-14.45979254 25.6514708 -14.45856888 22.3609453 -14.4609375 19.0703125 C-14.47530853 17.83685089 -14.48967957 16.60338928 -14.50448608 15.33255005 C-14.49833282 14.18140717 -14.49217957 13.03026428 -14.48583984 11.84423828 C-14.48868988 10.83402618 -14.49153992 9.82381409 -14.49447632 8.7829895 C-13.86678112 5.25022346 -12.45061533 3.57065217 -10 1 C-6.79826746 -0.60086627 -3.47422941 -0.49917089 0 0 Z M-5 9 C-5 25.83 -5 42.66 -5 60 C-4.34 60 -3.68 60 -3 60 C-3 43.17 -3 26.34 -3 9 C-3.66 9 -4.32 9 -5 9 Z " fill="#333D48" transform="translate(36,0)"/>
<path d="M0 0 C5.57894737 3.15789474 5.57894737 3.15789474 7 6 C7.28509874 11.51034515 7.31377238 17.02179481 7.35009766 22.53881836 C7.36665215 24.3826968 7.39393569 26.22651119 7.43212891 28.07006836 C7.48695665 30.73064405 7.50877979 33.38971637 7.5234375 36.05078125 C7.54610687 36.87177811 7.56877625 37.69277496 7.59213257 38.53865051 C7.57613737 42.88242023 7.41096167 44.48848566 4.59228516 47.99682617 C0.79509941 50.93108018 -1.1959366 51.37678929 -6 51 C-8.6701739 49.78628459 -10.42391368 48.82089468 -12.11743164 46.40771484 C-13.40518821 42.89461517 -13.34534576 39.42290945 -13.37109375 35.7265625 C-13.38012222 34.92519867 -13.3891507 34.12383484 -13.39845276 33.29818726 C-13.41293691 31.60540492 -13.42183744 29.91256682 -13.42553711 28.21972656 C-13.43742942 25.64030872 -13.48662454 23.06328795 -13.53710938 20.484375 C-13.54657503 18.83594912 -13.55380939 17.18750861 -13.55859375 15.5390625 C-13.57812607 14.7732486 -13.59765839 14.00743469 -13.61778259 13.21841431 C-13.58400242 9.17548437 -13.17411219 6.72198662 -10.59008789 3.52880859 C-6.94419963 -0.03082102 -5.06325275 -0.48685123 0 0 Z M-4 10 C-4 20.23 -4 30.46 -4 41 C-3.34 41 -2.68 41 -2 41 C-2 30.77 -2 20.54 -2 10 C-2.66 10 -3.32 10 -4 10 Z " fill="#353F49" transform="translate(57,19)"/>
<path d="M0 0 C2.69105198 2.17574416 4.45532928 3.91065856 6 7 C6.26518877 10.26463453 6.23154074 13.53828887 6.25 16.8125 C6.270625 17.71548828 6.29125 18.61847656 6.3125 19.54882812 C6.34167833 24.51279234 6.28940039 27.99481322 3 32 C-0.21855225 34.33067577 -3.10490526 34.46741137 -7 34 C-12.57894737 30.84210526 -12.57894737 30.84210526 -14 28 C-14.29382599 24.40235402 -14.27796031 20.79574606 -14.3125 17.1875 C-14.34150391 16.18912109 -14.37050781 15.19074219 -14.40039062 14.16210938 C-14.46442216 6.76892988 -14.46442216 6.76892988 -12.10546875 2.86328125 C-8.43140576 -0.38816225 -4.78325863 -0.84302642 0 0 Z M-5 9 C-5 13.95 -5 18.9 -5 24 C-4.34 24 -3.68 24 -3 24 C-3 19.38 -3 14.76 -3 10 C-3.66 9.67 -4.32 9.34 -5 9 Z " fill="#212C38" transform="translate(14,36)"/>
<path d="M0 0 C2.8100346 1.79363911 4.50940468 3.01880935 6 6 C6.11637184 7.82139348 6.16965308 9.64696423 6.19287109 11.47192383 C6.21696548 13.18929497 6.21696548 13.18929497 6.24154663 14.94136047 C6.28590947 20.1797205 6.327501 25.41799288 6.35009766 30.65649414 C6.36343269 33.42213043 6.39127554 36.18702808 6.43212891 38.95239258 C6.49093476 42.93308532 6.50875882 46.91341895 6.5234375 50.89453125 C6.54610687 52.13112991 6.56877625 53.36772858 6.59213257 54.64179993 C6.56856587 64.18718702 6.56856587 64.18718702 3.59228516 67.2565918 C-0.26806812 69.85282298 -2.31524609 70.36743168 -7 70 C-10.49406769 68.33237678 -11.82670681 67.25993978 -14 64 C-14.26742554 61.47097778 -14.26742554 61.47097778 -14.29052734 58.41455078 C-14.30328705 57.26971222 -14.31604675 56.12487366 -14.32919312 54.94534302 C-14.33141876 53.70783295 -14.33364441 52.47032288 -14.3359375 51.1953125 C-14.3425943 49.9240451 -14.3492511 48.65277771 -14.35610962 47.34298706 C-14.36624454 44.65120464 -14.37179056 41.95982598 -14.37060547 39.26806641 C-14.37040239 35.82570454 -14.39769118 32.38416934 -14.43214989 28.94200325 C-14.45979254 25.6514708 -14.45856888 22.3609453 -14.4609375 19.0703125 C-14.47530853 17.83685089 -14.48967957 16.60338928 -14.50448608 15.33255005 C-14.49833282 14.18140717 -14.49217957 13.03026428 -14.48583984 11.84423828 C-14.48868988 10.83402618 -14.49153992 9.82381409 -14.49447632 8.7829895 C-13.86678112 5.25022346 -12.45061533 3.57065217 -10 1 C-6.79826746 -0.60086627 -3.47422941 -0.49917089 0 0 Z M-11 7 C-11.59453916 9.58404155 -11.59453916 9.58404155 -11.50170898 12.43945312 C-11.51108994 13.52738159 -11.52047089 14.61531006 -11.53013611 15.73620605 C-11.51890213 16.90607056 -11.50766815 18.07593506 -11.49609375 19.28125 C-11.49754898 20.48688599 -11.49900421 21.69252197 -11.50050354 22.93469238 C-11.49884378 25.48334164 -11.48727409 28.03200084 -11.46655273 30.58056641 C-11.4376102 34.48513293 -11.44594106 38.38834123 -11.45898438 42.29296875 C-11.45274675 44.76823578 -11.44435562 47.24349851 -11.43359375 49.71875 C-11.43652939 50.8886145 -11.43946503 52.058479 -11.44248962 53.26379395 C-11.42980545 54.35172241 -11.41712128 55.43965088 -11.40405273 56.56054688 C-11.39864975 57.5166687 -11.39324677 58.47279053 -11.38768005 59.45788574 C-10.93319984 62.43802524 -10.05231249 63.82243139 -8 66 C-6.06574514 66.62723208 -6.06574514 66.62723208 -4 66.5 C-3.319375 66.5103125 -2.63875 66.520625 -1.9375 66.53125 C0.85270191 65.76619464 1.51251168 64.44193091 3 62 C3.46467139 59.40942467 3.46467139 59.40942467 3.41992188 56.56054688 C3.44378967 54.92865417 3.44378967 54.92865417 3.46813965 53.26379395 C3.46834106 52.09392944 3.46854248 50.92406494 3.46875 49.71875 C3.47636353 48.51311401 3.48397705 47.30747803 3.49182129 46.06530762 C3.502625 43.51670401 3.50547432 40.96805613 3.50097656 38.41943359 C3.50000363 34.51455165 3.54163977 30.61162976 3.5859375 26.70703125 C3.59114384 24.23177494 3.5938327 21.75651179 3.59375 19.28125 C3.61014526 18.1113855 3.62654053 16.941521 3.64343262 15.73620605 C3.75186476 9.44443142 3.75186476 9.44443142 0.62304688 4.26367188 C-4.70897308 1.69493255 -7.30092561 2.45500149 -11 7 Z " fill="#F1F1EC" transform="translate(36,0)"/>
<path d="M0 0 C5.57894737 3.15789474 5.57894737 3.15789474 7 6 C7.28509874 11.51034515 7.31377238 17.02179481 7.35009766 22.53881836 C7.36665215 24.3826968 7.39393569 26.22651119 7.43212891 28.07006836 C7.48695665 30.73064405 7.50877979 33.38971637 7.5234375 36.05078125 C7.54610687 36.87177811 7.56877625 37.69277496 7.59213257 38.53865051 C7.57613737 42.88242023 7.41096167 44.48848566 4.59228516 47.99682617 C0.79509941 50.93108018 -1.1959366 51.37678929 -6 51 C-8.6701739 49.78628459 -10.42391368 48.82089468 -12.11743164 46.40771484 C-13.40518821 42.89461517 -13.34534576 39.42290945 -13.37109375 35.7265625 C-13.38012222 34.92519867 -13.3891507 34.12383484 -13.39845276 33.29818726 C-13.41293691 31.60540492 -13.42183744 29.91256682 -13.42553711 28.21972656 C-13.43742942 25.64030872 -13.48662454 23.06328795 -13.53710938 20.484375 C-13.54657503 18.83594912 -13.55380939 17.18750861 -13.55859375 15.5390625 C-13.57812607 14.7732486 -13.59765839 14.00743469 -13.61778259 13.21841431 C-13.58400242 9.17548437 -13.17411219 6.72198662 -10.59008789 3.52880859 C-6.94419963 -0.03082102 -5.06325275 -0.48685123 0 0 Z M-7.875 5.375 C-10.34038165 8.93610683 -10.16129044 12.07879446 -10.16796875 16.2734375 C-10.17129715 16.99359039 -10.17462555 17.71374329 -10.17805481 18.45571899 C-10.1831205 19.98056397 -10.18546325 21.50542005 -10.18530273 23.03027344 C-10.18748492 25.35891101 -10.20563196 27.68707155 -10.22460938 30.015625 C-10.22754427 31.49739421 -10.22952842 32.97916568 -10.23046875 34.4609375 C-10.23765427 35.15585297 -10.24483978 35.85076843 -10.25224304 36.56674194 C-10.23519802 40.18960411 -10.10870421 42.97855923 -8 46 C-4.9167365 47.54163175 -2.39121901 47.29747535 1 47 C3.75508254 44.55037744 4.00156485 42.98503945 4.38818359 39.28881836 C4.40791268 37.80595412 4.4103275 36.32279156 4.3984375 34.83984375 C4.40130768 34.05356094 4.40417786 33.26727814 4.40713501 32.45716858 C4.40917242 30.79883095 4.40366512 29.14046911 4.39111328 27.48217773 C4.37503262 24.94265157 4.39098296 22.40471163 4.41015625 19.86523438 C4.40817418 18.25260065 4.40433125 16.63996792 4.3984375 15.02734375 C4.40451019 14.26791977 4.41058289 13.50849579 4.4168396 12.72605896 C4.37143434 8.64845664 4.37143434 8.64845664 2.69384766 5.02172852 C-0.69157588 2.97964182 -4.70286629 3.04876861 -7.875 5.375 Z " fill="#EFEFEA" transform="translate(57,19)"/>
<path d="M0 0 C0.78375 0.04125 1.5675 0.0825 2.375 0.125 C3.6429188 2.66083759 3.5088601 4.438773 3.52026367 7.27734375 C3.52664352 8.35185791 3.53302338 9.42637207 3.53959656 10.53344727 C3.54070938 11.69803467 3.5418222 12.86262207 3.54296875 14.0625 C3.54629715 15.25351318 3.54962555 16.44452637 3.55305481 17.67163086 C3.5581246 20.1935182 3.56046312 22.71541226 3.56030273 25.23730469 C3.56249086 29.10883545 3.58065084 32.98008214 3.59960938 36.8515625 C3.60254287 39.29687402 3.60452796 41.7421869 3.60546875 44.1875 C3.61265427 45.3520874 3.61983978 46.5166748 3.62724304 47.71655273 C3.62416641 48.79106689 3.62108978 49.86558105 3.61791992 50.97265625 C3.61934494 51.92148682 3.62076996 52.87031738 3.62223816 53.84790039 C3.375 56.125 3.375 56.125 1.375 58.125 C-3.18055556 57.56944444 -3.18055556 57.56944444 -4.625 56.125 C-4.72897018 54.44791576 -4.76352909 52.76647209 -4.77026367 51.08618164 C-4.77664352 50.01159195 -4.78302338 48.93700226 -4.78959656 47.82984924 C-4.79070938 46.66010056 -4.7918222 45.49035187 -4.79296875 44.28515625 C-4.79629715 43.09272812 -4.79962555 41.90029999 -4.80305481 40.67173767 C-4.80812916 38.14387397 -4.81046298 35.61600355 -4.81030273 33.08813477 C-4.8124886 29.20773346 -4.83063757 25.32761654 -4.84960938 21.44726562 C-4.85254323 18.99739681 -4.85452808 16.54752664 -4.85546875 14.09765625 C-4.86265427 12.92993179 -4.86983978 11.76220734 -4.87724304 10.55909729 C-4.87416641 9.48135544 -4.87108978 8.40361359 -4.86791992 7.29321289 C-4.86934494 6.34136612 -4.87076996 5.38951935 -4.87223816 4.40882874 C-4.49649363 0.93793998 -3.43756949 0.16369379 0 0 Z M-1.625 3.125 C-1.625 19.955 -1.625 36.785 -1.625 54.125 C-0.965 54.125 -0.305 54.125 0.375 54.125 C0.375 37.295 0.375 20.465 0.375 3.125 C-0.285 3.125 -0.945 3.125 -1.625 3.125 Z " fill="#F2F2ED" transform="translate(32.625,5.875)"/>
<path d="M0 0 C2.69105198 2.17574416 4.45532928 3.91065856 6 7 C6.26518877 10.26463453 6.23154074 13.53828887 6.25 16.8125 C6.270625 17.71548828 6.29125 18.61847656 6.3125 19.54882812 C6.34167833 24.51279234 6.28940039 27.99481322 3 32 C-0.21855225 34.33067577 -3.10490526 34.46741137 -7 34 C-12.57894737 30.84210526 -12.57894737 30.84210526 -14 28 C-14.29382599 24.40235402 -14.27796031 20.79574606 -14.3125 17.1875 C-14.34150391 16.18912109 -14.37050781 15.19074219 -14.40039062 14.16210938 C-14.46442216 6.76892988 -14.46442216 6.76892988 -12.10546875 2.86328125 C-8.43140576 -0.38816225 -4.78325863 -0.84302642 0 0 Z M-11 7 C-11.6232757 10.34104762 -11.60366782 13.60970857 -11.5625 17 C-11.58634766 17.90234375 -11.61019531 18.8046875 -11.63476562 19.734375 C-11.6559168 25.20871258 -11.6559168 25.20871258 -8.625 29.625 C-6.11556235 31.19816965 -6.11556235 31.19816965 -3.4375 31 C-0.3327475 29.72625539 0.96537457 28.70296393 3 26 C3.59536571 23.01071294 3.55857935 20.10130379 3.5 17.0625 C3.51546875 16.26392578 3.5309375 15.46535156 3.546875 14.64257812 C3.5202376 10.62366002 3.2867364 8.47141408 1.15625 4.96875 C-0.89737446 2.74667209 -0.89737446 2.74667209 -4 2.4375 C-7.81972107 3.1536977 -8.74028386 3.83257548 -11 7 Z " fill="#F0F0EC" transform="translate(14,36)"/>
<path d="M0 0 C4.55555556 0.55555556 4.55555556 0.55555556 6 2 C6.11332093 4.57019485 6.16417485 7.11251477 6.16796875 9.68359375 C6.17129715 10.45429703 6.17462555 11.22500031 6.17805481 12.01905823 C6.1831271 13.65242921 6.18546304 15.2858106 6.18530273 16.91918945 C6.1874878 19.42351299 6.20563595 21.92739521 6.22460938 24.43164062 C6.22754347 26.01562349 6.22952816 27.59960845 6.23046875 29.18359375 C6.23765427 29.9357164 6.24483978 30.68783905 6.25224304 31.4627533 C6.22882279 36.77117721 6.22882279 36.77117721 4 39 C-0.55555556 38.44444444 -0.55555556 38.44444444 -2 37 C-2.11332093 34.42980515 -2.16417485 31.88748523 -2.16796875 29.31640625 C-2.17296135 28.16035133 -2.17296135 28.16035133 -2.17805481 26.98094177 C-2.1831271 25.34757079 -2.18546304 23.7141894 -2.18530273 22.08081055 C-2.1874878 19.57648701 -2.20563595 17.07260479 -2.22460938 14.56835938 C-2.22754347 12.98437651 -2.22952816 11.40039155 -2.23046875 9.81640625 C-2.23765427 9.0642836 -2.24483978 8.31216095 -2.25224304 7.5372467 C-2.22882279 2.22882279 -2.22882279 2.22882279 0 0 Z M1 4 C1 14.23 1 24.46 1 35 C1.66 35 2.32 35 3 35 C3 24.77 3 14.54 3 4 C2.34 4 1.68 4 1 4 Z " fill="#F0F0EB" transform="translate(52,25)"/>
<path d="M0 0 C2.5625 0.1875 2.5625 0.1875 4.5625 2.1875 C4.82128906 4.03515625 4.82128906 4.03515625 4.828125 6.25 C4.83070312 7.04664063 4.83328125 7.84328125 4.8359375 8.6640625 C4.82820312 9.49679688 4.82046875 10.32953125 4.8125 11.1875 C4.82023438 12.02023438 4.82796875 12.85296875 4.8359375 13.7109375 C4.83335938 14.50757813 4.83078125 15.30421875 4.828125 16.125 C4.82586914 16.85589844 4.82361328 17.58679688 4.82128906 18.33984375 C4.5625 20.1875 4.5625 20.1875 2.5625 22.1875 C-1.99305556 21.63194444 -1.99305556 21.63194444 -3.4375 20.1875 C-3.53610131 18.78401265 -3.56828937 17.37569523 -3.5703125 15.96875 C-3.57160156 15.11925781 -3.57289063 14.26976562 -3.57421875 13.39453125 C-3.57035156 12.50121094 -3.56648437 11.60789062 -3.5625 10.6875 C-3.56636719 9.79417969 -3.57023438 8.90085937 -3.57421875 7.98046875 C-3.57292969 7.13097656 -3.57164062 6.28148437 -3.5703125 5.40625 C-3.56918457 4.62185547 -3.56805664 3.83746094 -3.56689453 3.02929688 C-3.36591526 0.16856555 -2.86618843 0.22047603 0 0 Z M-0.4375 3.1875 C-0.4375 8.1375 -0.4375 13.0875 -0.4375 18.1875 C0.2225 18.1875 0.8825 18.1875 1.5625 18.1875 C1.5625 13.5675 1.5625 8.9475 1.5625 4.1875 C0.9025 3.8575 0.2425 3.5275 -0.4375 3.1875 Z " fill="#EFEFEB" transform="translate(9.4375,41.8125)"/>
<path d="M0 0 C0 0.99 0 1.98 0 3 C-2.31 3.66 -4.62 4.32 -7 5 C-7.33 22.82 -7.66 40.64 -8 59 C-8.33 59 -8.66 59 -9 59 C-9.10133362 51.24051046 -9.17143783 43.48119124 -9.21972656 35.72119141 C-9.23985475 33.08082706 -9.26715987 30.44050735 -9.30175781 27.80029297 C-9.3502205 24.00737499 -9.3729572 20.21504584 -9.390625 16.421875 C-9.41127014 15.23946228 -9.43191528 14.05704956 -9.45318604 12.83880615 C-9.45363922 11.1875473 -9.45363922 11.1875473 -9.45410156 9.50292969 C-9.46742523 8.05064972 -9.46742523 8.05064972 -9.48101807 6.56903076 C-8.47553372 1.19892016 -5.17419147 -0.57491016 0 0 Z " fill="#4D565F" transform="translate(34,3)"/>
<path d="M0 0 C-2 3 -2 3 -6 4 C-6.33 9.94 -6.66 15.88 -7 22 C-7.33 22 -7.66 22 -8 22 C-8.16781295 19.39590255 -8.33429651 16.7917318 -8.5 14.1875 C-8.54769531 13.44951172 -8.59539063 12.71152344 -8.64453125 11.95117188 C-9.1932141 3.28982115 -9.1932141 3.28982115 -7.875 1.3125 C-5.23540902 -0.53521368 -3.14195927 -0.20946395 0 0 Z " fill="#535B64" transform="translate(13,39)"/>
<path d="M0 0 C0.556875 0.350625 1.11375 0.70125 1.6875 1.0625 C5.44318137 2.58507353 8.2832512 1.23891627 12 0 C11.125 3.875 11.125 3.875 10 5 C4.26388889 5.27314815 4.26388889 5.27314815 2 5 C1.34 4.34 0.68 3.68 0 3 C0 2.01 0 1.02 0 0 Z " fill="#242F3C" transform="translate(26,61)"/>
<path d="M0 0 C1.9375 1.375 1.9375 1.375 3 3 C3 3.66 3 4.32 3 5 C2.443125 4.855625 1.88625 4.71125 1.3125 4.5625 C-2.18293681 3.71225861 -5.3909736 3 -9 3 C-9 2.34 -9 1.68 -9 1 C-5.95016004 -0.52491998 -3.3576631 -0.23562548 0 0 Z " fill="#242F3C" transform="translate(58,23)"/>
<path d="M0 0 C0.99 0.33 1.98 0.66 3 1 C1.9375 3 1.9375 3 0 5 C-5.95522388 5.52238806 -5.95522388 5.52238806 -9 4 C-9 3.34 -9 2.68 -9 2 C-7.329375 2.061875 -7.329375 2.061875 -5.625 2.125 C-1.95633975 2.41121859 -1.95633975 2.41121859 0 0 Z " fill="#212C39" transform="translate(58,61)"/>
<path d="M0 0 C2.97 0.99 5.94 1.98 9 3 C8.67 3.99 8.34 4.98 8 6 C5.21788056 5.62403791 3.4120716 5.32681541 1.1875 3.5625 C0 2 0 2 0 0 Z " fill="#343E49" transform="translate(3,61)"/>
<path d="M0 0 C0.78375 0.04125 1.5675 0.0825 2.375 0.125 C2.375 1.115 2.375 2.105 2.375 3.125 C0.065 3.785 -2.245 4.445 -4.625 5.125 C-4.625 1.22254579 -3.95783286 0.18846823 0 0 Z " fill="#39434D" transform="translate(31.625,2.875)"/>
<path d="M0 0 C2.875 -0.125 2.875 -0.125 6 0 C6.66 0.66 7.32 1.32 8 2 C7.625 4.125 7.625 4.125 7 6 C6.5875 5.38125 6.175 4.7625 5.75 4.125 C3.94426121 1.93231719 2.5909466 1.07211583 0 0 Z " fill="#1B2633" transform="translate(30,4)"/>
</svg>
