<svg xmlns="http://www.w3.org/2000/svg" width="27.731" height="27.818" viewBox="0 0 27.731 27.818">
  <g id="Iconly_Curved_Activity" data-name="Iconly/Curved/Activity" transform="translate(-1.699 -1.6)" opacity="0.85">
    <g id="Activity" transform="translate(2.449 2.35)">
      <path id="Stroke_1" data-name="Stroke 1" d="M6.917,16.7l4.1-5.33L15.7,15.046l4.014-5.181" transform="translate(-0.794 0.434)" fill="none" stroke="#fff" stroke-linecap="round" stroke-linejoin="round" stroke-width="1.5"/>
      <path id="Stroke_2" data-name="Stroke 2" d="M20.379,2.35a2.634,2.634,0,1,1-2.634,2.634A2.633,2.633,0,0,1,20.379,2.35Z" transform="translate(3.218 -2.35)" fill="none" stroke="#fff" stroke-linecap="round" stroke-linejoin="round" stroke-width="1.5" fill-rule="evenodd"/>
      <path id="Stroke_4" data-name="Stroke 4" d="M27.538,11.572A28.521,28.521,0,0,1,27.8,15.73c0,9.509-3.169,12.677-12.677,12.677S2.449,25.239,2.449,15.73,5.619,3.053,15.127,3.053a28.686,28.686,0,0,1,4.088.256" transform="translate(-2.449 -2.09)" fill="none" stroke="#fff" stroke-linecap="round" stroke-linejoin="round" stroke-width="1.5"/>
    </g>
  </g>
</svg>
