<svg xmlns="http://www.w3.org/2000/svg" width="32.586" height="36.056" viewBox="0 0 32.586 36.056">
  <g id="inbox-up-svgrepo-com" transform="translate(0.749 0.75)">
    <path id="Path_34543" data-name="Path 34543" d="M27.178,2a6.908,6.908,0,0,1,6.908,6.908V29.632a6.908,6.908,0,0,1-6.908,6.908H9.908A6.908,6.908,0,0,1,3,29.632V8.908A6.908,6.908,0,0,1,9.908,2" transform="translate(-2.999 -1.984)" fill="none" stroke="#111d2b" stroke-linecap="round" stroke-linejoin="round" stroke-width="1.5"/>
    <path id="Path_34544" data-name="Path 34544" d="M34.086,13H32.1a5.181,5.181,0,0,0-4.628,2.867l-.587,1.175a5.181,5.181,0,0,1-4.628,2.867H14.83A5.181,5.181,0,0,1,10.2,17.041l-.587-1.175A5.181,5.181,0,0,0,4.986,13H3" transform="translate(-2.999 6.013)" fill="none" stroke="#111d2b" stroke-linecap="round" stroke-linejoin="round" stroke-width="1.5"/>
    <path id="Path_34545" data-name="Path 34545" d="M12.029,17.543V2" transform="translate(3.565 -1.984)" fill="none" stroke="#111d2b" stroke-linecap="round" stroke-linejoin="round" stroke-width="1.5"/>
    <path id="Path_34546" data-name="Path 34546" d="M8.5,7.188l4.335-4.456a2.384,2.384,0,0,1,3.454,0l4.335,4.456" transform="translate(0.999 -1.991)" fill="none" stroke="#111d2b" stroke-linecap="round" stroke-linejoin="round" stroke-width="1.5"/>
  </g>
</svg>
