<svg xmlns="http://www.w3.org/2000/svg" width="44.45" height="22.883" viewBox="0 0 44.45 22.883">
  <g id="Group_19247" data-name="Group 19247" transform="translate(-14671.614 -13048.928)">
    <path id="Path_36372" data-name="Path 36372" d="M14.941-10.881s-4.422-5.7-10.482-4.2a13.15,13.15,0,0,0-8.413,6.7" transform="translate(14699.083 13068.145)" fill="none" stroke="#fff" stroke-linecap="round" stroke-width="1.5"/>
    <path id="Path_36373" data-name="Path 36373" d="M57.164,5.489s-8.791,6.433-1.141,14.33,16.54-3.779,16.54-3.779" transform="translate(14619.5 13048.431)" fill="none" stroke="#fff" stroke-linecap="round" stroke-linejoin="round" stroke-width="1.5"/>
    <path id="Path_36374" data-name="Path 36374" d="M39.343,10.561s.425,8.066-5.349,9.339-14.536-7.532-14.536-7.532L5.636.287" transform="translate(14675.956 13051.032)" fill="none" stroke="#fff" stroke-linecap="round" stroke-width="1.5"/>
    <path id="Path_36375" data-name="Path 36375" d="M2.565,0l.579,3.285L0,3.712" transform="matrix(0.998, 0.07, -0.07, 0.998, 14711.173, 13053.867)" fill="none" stroke="#fff" stroke-linecap="round" stroke-linejoin="round" stroke-width="1.5"/>
    <path id="Path_36376" data-name="Path 36376" d="M2.651,0l.6,3.395L0,3.836" transform="translate(14683.399 13054.177) rotate(-171)" fill="none" stroke="#fff" stroke-linecap="round" stroke-linejoin="round" stroke-width="1.5"/>
  </g>
</svg>
