<svg xmlns="http://www.w3.org/2000/svg" width="22.208" height="22.208" viewBox="0 0 22.208 22.208">
  <g id="instagram" transform="translate(0.001)">
    <g id="Group_5" data-name="Group 5" transform="translate(-0.001)">
      <g id="Group_4" data-name="Group 4">
        <path id="Path_433" data-name="Path 433" d="M16.207,0H6A6.008,6.008,0,0,0,0,6V16.208a6.008,6.008,0,0,0,6,6H16.207a6.008,6.008,0,0,0,6-6V6a6.008,6.008,0,0,0-6-6Zm4.209,16.208a4.209,4.209,0,0,1-4.209,4.209H6a4.209,4.209,0,0,1-4.209-4.209V6A4.209,4.209,0,0,1,6,1.792H16.207A4.209,4.209,0,0,1,20.416,6Z" transform="translate(0 0)"/>
      </g>
    </g>
    <g id="Group_7" data-name="Group 7" transform="translate(6.169 6.084)">
      <g id="Group_6" data-name="Group 6" transform="translate(0 0)">
        <path id="Path_434" data-name="Path 434" d="M152.092,144.422a4.979,4.979,0,1,0-4.937,5.711,5.043,5.043,0,0,0,.743-.054,4.98,4.98,0,0,0,4.2-5.656Zm-4.456,3.879a3.16,3.16,0,1,1,2.1-1.246,3.185,3.185,0,0,1-2.1,1.246Z" transform="translate(-142.189 -140.176)"/>
      </g>
    </g>
    <g id="Group_9" data-name="Group 9" transform="translate(15.822 4.593)">
      <g id="Group_8" data-name="Group 8" transform="translate(0 0)">
        <path id="Path_435" data-name="Path 435" d="M366.276,106.155a.9.9,0,1,0,.262.635.9.9,0,0,0-.262-.635Z" transform="translate(-364.744 -105.892)"/>
      </g>
    </g>
  </g>
</svg>
