<svg xmlns="http://www.w3.org/2000/svg" width="28" height="24" viewBox="0 0 28 24">
  <g id="interface-ui-layout-app-svgrepo-com" transform="translate(-2 -4)">
    <line id="Line_1846" data-name="Line 1846" x2="26" transform="translate(3 11)" fill="none" stroke="#828990" stroke-linecap="round" stroke-linejoin="round" stroke-width="2"/>
    <g id="Group_18720" data-name="Group 18720">
      <path id="Path_35519" data-name="Path 35519" d="M7,9A1.025,1.025,0,0,1,6,8a.908.908,0,0,1,.3-.7l.1-.1c.1,0,.1-.1.2-.1.1-.1.1-.1.2-.1h.4c.1,0,.1,0,.2.1.1,0,.1.1.2.1l.1.1c.1.1.2.2.2.3A.6.6,0,0,1,8,8a.6.6,0,0,1-.1.4c0,.1-.1.2-.2.3A.908.908,0,0,1,7,9Z" fill="#828990"/>
    </g>
    <g id="Group_18721" data-name="Group 18721">
      <path id="Path_35520" data-name="Path 35520" d="M10,9A1.025,1.025,0,0,1,9,8a.6.6,0,0,1,.1-.4c.1-.1.1-.2.2-.3s.2-.2.3-.2a.913.913,0,0,1,1.1.2c.1.1.2.2.2.3A.6.6,0,0,1,11,8a1.025,1.025,0,0,1-1,1Z" fill="#828990"/>
    </g>
    <g id="Group_18722" data-name="Group 18722">
      <path id="Path_35521" data-name="Path 35521" d="M13,9a.6.6,0,0,1-.4-.1c-.1-.1-.2-.1-.3-.2s-.2-.2-.2-.3A.6.6,0,0,1,12,8a.6.6,0,0,1,.1-.4c.1-.1.1-.2.2-.3a.967.967,0,0,1,1.4,0c.1.1.2.2.2.3A.6.6,0,0,1,14,8a.6.6,0,0,1-.1.4c-.1.1-.1.2-.2.3A.908.908,0,0,1,13,9Z" fill="#828990"/>
    </g>
    <path id="Path_35522" data-name="Path 35522" d="M27,5H5A2.006,2.006,0,0,0,3,7V25a2.006,2.006,0,0,0,2,2H27a2.006,2.006,0,0,0,2-2V7A2.006,2.006,0,0,0,27,5Z" fill="none" stroke="#828990" stroke-linecap="round" stroke-linejoin="round" stroke-width="2"/>
    <line id="Line_1848" data-name="Line 1848" y2="16" transform="translate(19 11)" fill="none" stroke="#828990" stroke-linecap="round" stroke-linejoin="round" stroke-width="2"/>
  </g>
</svg>
