<svg xmlns="http://www.w3.org/2000/svg" width="40.103" height="40.103" viewBox="0 0 40.103 40.103">
  <g id="invoice" transform="translate(-0.64 -0.64)">
    <path id="invoice_1_" d="M31.135,40.743a9.618,9.618,0,0,1-9.608-9.608c0-.279.012-.559.037-.835H6.332v-.94H21.694a9.512,9.512,0,0,1,.9-2.613,9.4,9.4,0,0,1,1.082-1.667H6.332v-.941H24.549a9.608,9.608,0,1,1,6.586,16.6Zm0-18.276A8.61,8.61,0,0,0,26.32,23.93a8.515,8.515,0,0,0-2.89,3.244,8.665,8.665,0,1,0,7.7-4.707ZM22,40.743H1.11a.47.47,0,0,1-.47-.47V1.11A.47.47,0,0,1,1.11.64h23.5a.471.471,0,0,1,.333.137L32.773,8.61a.474.474,0,0,1,.137.333V19.386h-.94V9.412H24.608a.47.47,0,0,1-.47-.47V1.58H1.58V39.8H22Zm3.081-32.27h6.228L25.077,2.244ZM31.6,35.7h-.94V34.215H28.524v-.94H32.44a.835.835,0,1,0,0-1.671H29.829a1.775,1.775,0,0,1,0-3.551h.835V26.566h.941v1.488h2.14V29H29.829a.835.835,0,1,0,0,1.671H32.44a1.775,1.775,0,0,1,0,3.551H31.6ZM18.08,35.521H6.332v-.94H18.08Zm9.138-15.665H6.332v-.94H27.218Zm0-5.222H6.332v-.94H27.218Z"/>
  </g>
</svg>
