<svg xmlns="http://www.w3.org/2000/svg" width="41.337" height="44.527" viewBox="0 0 41.337 44.527">
  <g id="light-bulb-idea-svgrepo-com" transform="translate(-18.2)" opacity="0.65">
    <g id="Group_18669" data-name="Group 18669" transform="translate(25.142 6.942)">
      <g id="Group_18668" data-name="Group 18668" transform="translate(0)">
        <path id="Path_35471" data-name="Path 35471" d="M124.783,91.62a13.723,13.723,0,1,0-19.266,13.84v1.4H105.5a1.236,1.236,0,1,0,0,2.472h.018v1.446H105.5a1.236,1.236,0,1,0,0,2.472h.421a5.59,5.59,0,0,0,10.4,0h.429a1.236,1.236,0,1,0,0-2.472h-.026v-1.446h.026a1.236,1.236,0,1,0,0-2.472h-.026v-1.4A13.775,13.775,0,0,0,124.783,91.62Zm-9.729,11.851a1.241,1.241,0,0,0-.806,1.157v6.548a3.129,3.129,0,1,1-6.258,0v-6.548a1.233,1.233,0,0,0-.806-1.157,11.255,11.255,0,0,1,3.936-21.8,11.583,11.583,0,0,1,11.2,10.176A11.269,11.269,0,0,1,115.053,103.471Z" transform="translate(-97.4 -79.2)" fill="#fff"/>
      </g>
    </g>
    <g id="Group_18671" data-name="Group 18671" transform="translate(32.248 15.768)">
      <g id="Group_18670" data-name="Group 18670">
        <path id="Path_35472" data-name="Path 35472" d="M191.345,180.257a1.225,1.225,0,0,0-1.744-.009l-6.469,6.469-2.542-2.542a1.24,1.24,0,0,0-1.753,1.753l3.418,3.418a1.226,1.226,0,0,0,.876.359,1.264,1.264,0,0,0,.877-.359l7.337-7.336A1.243,1.243,0,0,0,191.345,180.257Z" transform="translate(-178.475 -179.887)" fill="#fff"/>
      </g>
    </g>
    <g id="Group_18673" data-name="Group 18673" transform="translate(18.2 19.433)">
      <g id="Group_18672" data-name="Group 18672" transform="translate(0)">
        <path id="Path_35473" data-name="Path 35473" d="M21.978,221.7H19.436a1.236,1.236,0,1,0,0,2.472h2.542a1.236,1.236,0,1,0,0-2.472Z" transform="translate(-18.2 -221.7)" fill="#fff"/>
      </g>
    </g>
    <g id="Group_18675" data-name="Group 18675" transform="translate(54.523 19.433)">
      <g id="Group_18674" data-name="Group 18674">
        <path id="Path_35474" data-name="Path 35474" d="M436.378,221.7h-2.542a1.236,1.236,0,1,0,0,2.472h2.542a1.236,1.236,0,1,0,0-2.472Z" transform="translate(-432.6 -221.7)" fill="#fff"/>
      </g>
    </g>
    <g id="Group_18677" data-name="Group 18677" transform="translate(37.632)">
      <g id="Group_18676" data-name="Group 18676">
        <path id="Path_35475" data-name="Path 35475" d="M241.136,0A1.234,1.234,0,0,0,239.9,1.236V3.778a1.236,1.236,0,1,0,2.472,0V1.236A1.234,1.234,0,0,0,241.136,0Z" transform="translate(-239.9)" fill="#fff"/>
      </g>
    </g>
    <g id="Group_18679" data-name="Group 18679" transform="translate(23.886 5.686)">
      <g id="Group_18678" data-name="Group 18678">
        <path id="Path_35476" data-name="Path 35476" d="M86.986,67.033l-1.8-1.8a1.24,1.24,0,0,0-1.753,1.753l1.8,1.8a1.24,1.24,0,1,0,1.753-1.753Z" transform="translate(-83.075 -64.875)" fill="#fff"/>
      </g>
    </g>
    <g id="Group_18681" data-name="Group 18681" transform="translate(49.577 5.694)">
      <g id="Group_18680" data-name="Group 18680">
        <path id="Path_35477" data-name="Path 35477" d="M380.078,65.316a1.241,1.241,0,0,0-1.744.009l-1.8,1.8a1.24,1.24,0,0,0,1.753,1.753l1.788-1.806A1.243,1.243,0,0,0,380.078,65.316Z" transform="translate(-376.175 -64.962)" fill="#fff"/>
      </g>
    </g>
  </g>
</svg>
