<svg xmlns="http://www.w3.org/2000/svg" width="42.178" height="60.254" viewBox="0 0 42.178 60.254">
  <g id="Page-1" opacity="0.8">
    <g id="Dribbble-Light-Preview">
      <g id="icons">
        <path id="pin_sharp_circle-_624_" data-name="pin_sharp_circle-[#624]" d="M194.114,5300.753a6.025,6.025,0,1,1-6.025-6.026,6.034,6.034,0,0,1,6.025,6.026m-6.025,29.463s-15.063-21.089-15.063-30.127a15.063,15.063,0,1,1,30.127,0c0,9.038-15.063,30.127-15.063,30.127m0-51.217A21.081,21.081,0,0,0,167,5300.089c0,11.659,21.089,39.164,21.089,39.164s21.089-27.5,21.089-39.164A21.081,21.081,0,0,0,188.089,5279" transform="translate(-167 -5278.999)" fill="#fff" fill-rule="evenodd"/>
      </g>
    </g>
  </g>
</svg>
