<?xml version="1.0" encoding="UTF-8"?>
<svg version="1.1" xmlns="http://www.w3.org/2000/svg" width="74" height="69">
<path d="M0 0 C1.27006897 -0.00505302 1.27006897 -0.00505302 2.5657959 -0.01020813 C4.3510548 -0.00990991 6.13636569 0.00527997 7.92138672 0.03442383 C10.64840505 0.0741046 13.3705578 0.05512633 16.09765625 0.02929688 C17.8359563 0.03685653 19.57424558 0.04781056 21.3125 0.0625 C22.12408569 0.0555159 22.93567139 0.0485318 23.77185059 0.04133606 C28.06982882 0.14811725 29.68478079 0.38036298 33.14648438 3.18041992 C36.37822376 7.33119501 36.26646747 9.63779735 36.21875 14.88671875 C36.20972656 16.16804688 36.20070312 17.449375 36.19140625 18.76953125 C36.17980469 19.75695312 36.16820312 20.744375 36.15625 21.76171875 C40.11625 21.76171875 44.07625 21.76171875 48.15625 21.76171875 C45.88215164 27.44696465 42.92581073 32.31733186 39.71875 37.51171875 C38.83993164 38.96771484 38.83993164 38.96771484 37.94335938 40.453125 C37.37552734 41.37480469 36.80769531 42.29648437 36.22265625 43.24609375 C35.70646729 44.08881836 35.19027832 44.93154297 34.65844727 45.79980469 C33.15625 47.76171875 33.15625 47.76171875 30.15625 48.76171875 C28.01139185 45.40410304 25.87543104 42.04101503 23.74755859 38.67260742 C23.02244559 37.52751286 22.2949195 36.38394265 21.56494141 35.24194336 C20.51612379 33.60022273 19.47667792 31.95252677 18.4375 30.3046875 C17.80908203 29.3149292 17.18066406 28.3251709 16.53320312 27.30541992 C15.15625 24.76171875 15.15625 24.76171875 15.15625 21.76171875 C19.11625 21.76171875 23.07625 21.76171875 27.15625 21.76171875 C26.66125 16.31671875 26.66125 16.31671875 26.15625 10.76171875 C15.92625 10.43171875 5.69625 10.10171875 -4.84375 9.76171875 C-4.84375 13.39171875 -4.84375 17.02171875 -4.84375 20.76171875 C-5.83375 21.09171875 -6.82375 21.42171875 -7.84375 21.76171875 C-5.90990695 25.0139079 -3.97104006 28.2630738 -2.03125 31.51171875 C-1.48404297 32.43210937 -0.93683594 33.3525 -0.37304688 34.30078125 C0.15869141 35.19023438 0.69042969 36.0796875 1.23828125 36.99609375 C1.96881714 38.22150879 1.96881714 38.22150879 2.71411133 39.47167969 C4.12417545 41.79263508 4.12417545 41.79263508 5.83862305 43.93457031 C7.15625 45.76171875 7.15625 45.76171875 7.15625 47.76171875 C3.19625 47.76171875 -0.76375 47.76171875 -4.84375 47.76171875 C-4.51375 51.72171875 -4.18375 55.68171875 -3.84375 59.76171875 C6.05625 59.76171875 15.95625 59.76171875 26.15625 59.76171875 C26.65125 54.81171875 26.65125 54.81171875 27.15625 49.76171875 C30.12625 49.76171875 33.09625 49.76171875 36.15625 49.76171875 C36.23785748 51.65682574 36.29571459 53.55296379 36.34375 55.44921875 C36.39595703 57.03283203 36.39595703 57.03283203 36.44921875 58.6484375 C36.11151168 62.23713801 35.37428745 63.93744981 33.15625 66.76171875 C28.98773156 69.95224049 25.26502564 70.20273967 20.1875 70.16015625 C19.42957153 70.16302643 18.67164307 70.16589661 17.89074707 70.16885376 C16.2938563 70.17088841 14.69694026 70.16540052 13.10009766 70.15283203 C10.66381803 70.13676865 8.22919713 70.15269984 5.79296875 70.171875 C4.23697553 70.16989246 2.68098333 70.16604856 1.125 70.16015625 C0.40090942 70.16622894 -0.32318115 70.17230164 -1.06921387 70.17855835 C-5.50027349 70.11731659 -8.33349229 69.50561854 -11.84375 66.76171875 C-14.37150351 62.97008848 -14.06818035 59.95297844 -13.96875 55.57421875 C-13.95972656 54.82462891 -13.95070313 54.07503906 -13.94140625 53.30273438 C-13.91787578 51.45559221 -13.88200561 49.60861463 -13.84375 47.76171875 C-17.80375 47.76171875 -21.76375 47.76171875 -25.84375 47.76171875 C-24.38994087 44.12719593 -23.04515609 41.22619484 -21.05859375 37.93359375 C-20.52814453 37.051875 -19.99769531 36.17015625 -19.45117188 35.26171875 C-18.62456055 33.90046875 -18.62456055 33.90046875 -17.78125 32.51171875 C-17.22630859 31.58875 -16.67136719 30.66578125 -16.09960938 29.71484375 C-11.9911584 22.90912715 -11.9911584 22.90912715 -10.84375 21.76171875 C-11.83375 21.43171875 -12.82375 21.10171875 -13.84375 20.76171875 C-13.9797733 18.55511854 -14.07620148 16.3460578 -14.15625 14.13671875 C-14.21425781 12.90695312 -14.27226562 11.6771875 -14.33203125 10.41015625 C-13.13504905 1.46630526 -7.96779177 -0.15003628 0 0 Z " fill="#ECECE8" transform="translate(25.84375,-0.76171875)"/>
<path d="M0 0 C0.78628281 -0.00145523 1.57256561 -0.00291046 2.38267517 -0.00440979 C4.04104324 -0.00275308 5.69942704 0.00878286 7.35766602 0.02954102 C9.89730985 0.05853628 12.43487067 0.05013872 14.97460938 0.03710938 C16.58724973 0.04334591 18.1998835 0.0517362 19.8125 0.0625 C20.95163597 0.05809654 20.95163597 0.05809654 22.11378479 0.05360413 C27.33477285 0.14719233 27.33477285 0.14719233 29.77905273 1.83569336 C32.36554373 5.88419169 31.95467362 10.07453959 31.90234375 14.68359375 C31.89783203 15.43318359 31.89332031 16.18277344 31.88867188 16.95507812 C31.87690729 18.80211758 31.8589724 20.64911588 31.83984375 22.49609375 C34.80984375 22.49609375 37.77984375 22.49609375 40.83984375 22.49609375 C37.72693008 28.32761868 34.64357113 34.08309709 30.83984375 39.49609375 C27.69161567 36.55681886 25.3852653 33.51041595 23.08984375 29.87109375 C22.47625 28.90945312 21.86265625 27.9478125 21.23046875 26.95703125 C19.83984375 24.49609375 19.83984375 24.49609375 19.83984375 22.49609375 C22.80984375 22.49609375 25.77984375 22.49609375 28.83984375 22.49609375 C28.50984375 16.22609375 28.17984375 9.95609375 27.83984375 3.49609375 C15.95984375 3.82609375 4.07984375 4.15609375 -8.16015625 4.49609375 C-8.49015625 7.46609375 -8.82015625 10.43609375 -9.16015625 13.49609375 C-10.15015625 13.49609375 -11.14015625 13.49609375 -12.16015625 13.49609375 C-12.26899744 12.08115824 -12.34613242 10.66376432 -12.41015625 9.24609375 C-12.4565625 8.4571875 -12.50296875 7.66828125 -12.55078125 6.85546875 C-11.42207921 0.0381084 -5.79645165 -0.08597469 0 0 Z " fill="#1A2527" transform="translate(27.16015625,2.50390625)"/>
<path d="M0 0 C3.14822808 2.93927489 5.45457845 5.9856778 7.75 9.625 C8.36359375 10.58664063 8.9771875 11.54828125 9.609375 12.5390625 C11 15 11 15 11 17 C8.03 17 5.06 17 2 17 C2.14019692 19.81288705 2.28687955 22.62516885 2.4375 25.4375 C2.47681641 26.23994141 2.51613281 27.04238281 2.55664062 27.86914062 C2.4054296 31.75239561 2.4054296 31.75239561 4 35 C6.50924153 35.10087212 8.99036384 35.13972032 11.5 35.1328125 C12.25087891 35.13376923 13.00175781 35.13472595 13.77539062 35.13571167 C15.36588627 35.13639338 16.95638467 35.13453972 18.546875 35.13037109 C20.98964655 35.12502267 23.43223421 35.13031634 25.875 35.13671875 C27.41666707 35.13605797 28.95833403 35.1347768 30.5 35.1328125 C31.23541016 35.13483673 31.97082031 35.13686096 32.72851562 35.13894653 C36.15246342 35.43056513 36.15246342 35.43056513 39 34 C39.23192865 32.48530552 39.41215238 30.96245438 39.5625 29.4375 C39.64628906 28.61121094 39.73007812 27.78492187 39.81640625 26.93359375 C39.90728516 25.97646484 39.90728516 25.97646484 40 25 C40.66 25 41.32 25 42 25 C42.08121924 26.60332791 42.13929134 28.20784026 42.1875 29.8125 C42.23970703 31.15248047 42.23970703 31.15248047 42.29296875 32.51953125 C42 35 42 35 40.99926758 36.62792969 C37.83305638 38.80085763 34.4287406 38.44747787 30.71875 38.43359375 C29.9088562 38.4388356 29.0989624 38.44407745 28.26452637 38.44947815 C26.55315294 38.45589817 24.84173538 38.45456157 23.13037109 38.44604492 C20.50929411 38.43753019 17.89039308 38.46630122 15.26953125 38.49804688 C13.60677149 38.49965885 11.94400786 38.49908142 10.28125 38.49609375 C9.49681519 38.50732773 8.71238037 38.51856171 7.9041748 38.53013611 C2.51951314 38.46102113 2.51951314 38.46102113 0.00073242 36.22583008 C-1.05063843 33.88736996 -1.35085901 32.43779658 -1.29296875 29.890625 C-1.28330078 29.13652344 -1.27363281 28.38242187 -1.26367188 27.60546875 C-1.23853516 26.82816406 -1.21339844 26.05085938 -1.1875 25.25 C-1.17396484 24.45722656 -1.16042969 23.66445313 -1.14648438 22.84765625 C-1.11125223 20.89814436 -1.05744821 18.94898374 -1 17 C-3.97 17 -6.94 17 -10 17 C-8.57394582 13.07297642 -6.70550338 9.75380481 -4.4375 6.25 C-3.81746094 5.28578125 -3.19742187 4.3215625 -2.55859375 3.328125 C-1 1 -1 1 0 0 Z " fill="#2E3839" transform="translate(16,27)"/>
<path d="M0 0 C0.66 0 1.32 0 2 0 C2.08121924 1.60332791 2.13929134 3.20784026 2.1875 4.8125 C2.23970703 6.15248047 2.23970703 6.15248047 2.29296875 7.51953125 C2 10 2 10 1.00585938 11.63671875 C-2.19800055 13.81422044 -5.64977104 13.3658574 -9.38671875 13.29296875 C-10.20372757 13.28872391 -11.02073639 13.28447906 -11.86250305 13.28010559 C-14.47117107 13.26331691 -17.07906562 13.22566519 -19.6875 13.1875 C-21.45636905 13.17245337 -23.22525021 13.15876492 -24.99414062 13.14648438 C-29.32972496 13.11341286 -33.66473136 13.0616299 -38 13 C-38.66 11.68 -39.32 10.36 -40 9 C-39.34 8.34 -38.68 7.68 -38 7 C-37.01 8.485 -37.01 8.485 -36 10 C-33.38710772 10.27949467 -31.01420564 10.37228548 -28.40234375 10.328125 C-27.65287979 10.32625183 -26.90341583 10.32437866 -26.13124084 10.32244873 C-24.54667717 10.31572368 -22.96213023 10.3018001 -21.37768555 10.28125 C-18.94369195 10.2500793 -16.51034531 10.24027901 -14.07617188 10.234375 C-12.53905455 10.22520589 -11.00194385 10.21483041 -9.46484375 10.203125 C-8.73257065 10.19887512 -8.00029755 10.19462524 -7.24583435 10.19024658 C-3.83421166 10.44150589 -3.83421166 10.44150589 -1 9 C-0.76807135 7.48530552 -0.58784762 5.96245438 -0.4375 4.4375 C-0.35371094 3.61121094 -0.26992188 2.78492188 -0.18359375 1.93359375 C-0.09271484 0.97646484 -0.09271484 0.97646484 0 0 Z " fill="#121D1F" transform="translate(56,52)"/>
<path d="M0 0 C0.75700195 0.19988525 1.51400391 0.39977051 2.29394531 0.60571289 C4.60931463 0.75390358 6.92798342 0.85333267 9.24707031 0.92211914 C10.23740265 0.95329079 10.23740265 0.95329079 11.2477417 0.98509216 C13.34637546 1.05021436 15.44512903 1.10929791 17.54394531 1.16821289 C18.97104079 1.21143368 20.39812437 1.25504909 21.82519531 1.29907227 C25.31465253 1.405857 28.80424284 1.50722855 32.29394531 1.60571289 C32.29394531 1.93571289 32.29394531 2.26571289 32.29394531 2.60571289 C21.07394531 2.93571289 9.85394531 3.26571289 -1.70605469 3.60571289 C-2.03605469 6.57571289 -2.36605469 9.54571289 -2.70605469 12.60571289 C-3.69605469 12.60571289 -4.68605469 12.60571289 -5.70605469 12.60571289 C-6.32674434 4.53674737 -6.32674434 4.53674737 -3.95605469 0.98071289 C-1.70605469 -0.39428711 -1.70605469 -0.39428711 0 0 Z " fill="#4E5757" transform="translate(20.7060546875,3.394287109375)"/>
<path d="M0 0 C4.29 0 8.58 0 13 0 C8.5078125 7.8125 8.5078125 7.8125 7 10 C6.34 10 5.68 10 5 10 C3.7109375 8.3203125 3.7109375 8.3203125 2.375 6.125 C1.92898437 5.40570313 1.48296875 4.68640625 1.0234375 3.9453125 C0 2 0 2 0 0 Z " fill="#DEDFDA" transform="translate(51,27)"/>
<path d="M0 0 C3.82524236 1.450954 5.19090966 3.38181932 7 7 C7 7.66 7 8.32 7 9 C9.14014948 7.07386546 10.47433788 5.26693237 12.0625 2.8125 C12.701875 1.884375 13.34125 0.95625 14 0 C14.66 0 15.32 0 16 0 C15.34097701 3.57040303 13.83770842 6.17732255 11.9375 9.25 C11.38964844 10.14203125 10.84179688 11.0340625 10.27734375 11.953125 C9.85582031 12.62859375 9.43429688 13.3040625 9 14 C6.33868932 11.46379367 4.17796621 9.00496983 2.25 5.875 C1.82203125 5.19179688 1.3940625 4.50859375 0.953125 3.8046875 C0 2 0 2 0 0 Z " fill="#212C2E" transform="translate(49,28)"/>
<path d="M0 0 C2.99876322 2.80319171 5.16322727 5.59434917 7.25 9.125 C7.77078125 9.99382813 8.2915625 10.86265625 8.828125 11.7578125 C10 14 10 14 10 16 C8.125 15.75 8.125 15.75 6 15 C5 13.3125 5 13.3125 4 11 C2.68457624 8.98817543 1.3540932 6.98600337 0 5 C-0.928125 6.2375 -0.928125 6.2375 -1.875 7.5 C-2.57625 8.325 -3.2775 9.15 -4 10 C-4.66 10 -5.32 10 -6 10 C-4.6302836 6.00499382 -2.74277578 3.19990508 0 0 Z " fill="#212C2D" transform="translate(16,27)"/>
<path d="M0 0 C2.90212286 3.38581001 4.29395475 5.73488687 6 10 C2.04 10 -1.92 10 -6 10 C-1.125 1.125 -1.125 1.125 0 0 Z " fill="#E8E9E4" transform="translate(16,31)"/>
<path d="M0 0 C1.9375 0.75 1.9375 0.75 4 2 C4.75 4.125 4.75 4.125 5 6 C3.68 5.67 2.36 5.34 1 5 C0.67 3.35 0.34 1.7 0 0 Z " fill="#141F21" transform="translate(21,37)"/>
</svg>
