<svg xmlns="http://www.w3.org/2000/svg" width="32.633" height="33.294" viewBox="0 0 32.633 33.294">
  <g id="notes-svgrepo-com" transform="translate(-1.304 -1.304)" opacity="0.89">
    <path id="Path_36334" data-name="Path 36334" d="M28.235,18.985l.826-3.082c.964-3.6,1.446-5.4,1.083-6.953a6.381,6.381,0,0,0-1.852-3.208C27.125,4.65,25.326,4.168,21.729,3.2s-5.4-1.446-6.953-1.083a6.381,6.381,0,0,0-3.208,1.852c-.935,1-1.423,2.461-2.149,5.119-.122.446-.251.926-.389,1.444h0L8.2,13.618c-.964,3.6-1.446,5.4-1.083,6.953a6.381,6.381,0,0,0,1.852,3.208c1.167,1.093,2.965,1.575,6.563,2.539h0c3.243.869,5.024,1.346,6.483,1.166a4.432,4.432,0,0,0,.469-.083A6.381,6.381,0,0,0,25.7,25.548C26.789,24.381,27.271,22.583,28.235,18.985Z" transform="translate(2.976 0)" fill="none" stroke="#fff" stroke-width="1.5"/>
    <path id="Path_36335" data-name="Path 36335" d="M25,24.837a6.382,6.382,0,0,1-1.7,2.677c-1.167,1.093-2.965,1.575-6.563,2.539s-5.4,1.446-6.953,1.083a6.381,6.381,0,0,1-3.208-1.852C5.475,28.116,4.993,26.317,4.03,22.72L3.2,19.638c-.964-3.6-1.446-5.4-1.083-6.953A6.381,6.381,0,0,1,3.973,9.477C5.14,8.384,6.938,7.9,10.536,6.938c.681-.182,1.3-.347,1.859-.493" transform="translate(0 2.646)" fill="none" stroke="#fff" stroke-width="1.5"/>
    <path id="Path_36336" data-name="Path 36336" d="M11.777,10l7.7,2.064" transform="translate(5.82 4.762)" fill="none" stroke="#fff" stroke-linecap="round" stroke-width="1.5"/>
    <path id="Path_36337" data-name="Path 36337" d="M11,12.9l4.623,1.239" transform="translate(5.357 6.487)" fill="none" stroke="#fff" stroke-linecap="round" stroke-width="1.5"/>
  </g>
</svg>
