<?xml version="1.0" encoding="UTF-8"?>
<svg version="1.1" xmlns="http://www.w3.org/2000/svg" width="66" height="65">
<path d="M0 0 C3.12001504 1.68818449 5.39047471 3.78094941 7 7 C7.46776468 11.67764683 7.72969391 14.6626117 4.75 18.4375 C2 21 2 21 -2 22 C-2 25.3 -2 28.6 -2 32 C-1.10796875 31.95359375 -0.2159375 31.9071875 0.703125 31.859375 C1.87359375 31.82328125 3.0440625 31.7871875 4.25 31.75 C5.99023438 31.68039063 5.99023438 31.68039063 7.765625 31.609375 C11 32 11 32 13.359375 33.828125 C16.57663321 38.08716206 16.08357235 41.90208655 16 47 C16.68707031 46.96519531 17.37414063 46.93039063 18.08203125 46.89453125 C18.98308594 46.86746094 19.88414063 46.84039062 20.8125 46.8125 C22.15248047 46.76029297 22.15248047 46.76029297 23.51953125 46.70703125 C26 47 26 47 27.796875 48.13671875 C29.51164853 50.79239075 29.43365401 52.86167207 29.4375 56 C29.45683594 57.051875 29.47617188 58.10375 29.49609375 59.1875 C29 62 29 62 27.27172852 63.64868164 C23.27529546 66.02592581 19.03971281 65.47137845 14.5 65.4375 C13.54996094 65.45748047 12.59992187 65.47746094 11.62109375 65.49804688 C4.75611962 65.49321919 4.75611962 65.49321919 1.37109375 63.28515625 C-0.2260064 60.62332267 -0.50814023 59.0893328 -0.4375 56 C-0.43621094 55.154375 -0.43492188 54.30875 -0.43359375 53.4375 C0.09277826 50.47843571 0.83745785 49.08599199 3 47 C5.26171875 46.609375 5.26171875 46.609375 7.6875 46.75 C8.49574219 46.78609375 9.30398437 46.8221875 10.13671875 46.859375 C10.75160156 46.90578125 11.36648437 46.9521875 12 47 C11.91291331 45.54054712 11.80473093 44.08234132 11.6875 42.625 C11.62949219 41.81289063 11.57148437 41.00078125 11.51171875 40.1640625 C11.17009472 37.62078662 11.17009472 37.62078662 8 36 C3.84745662 35.55928195 -0.32663217 35.67584255 -4.5 35.6875 C-6.23056641 35.66333008 -6.23056641 35.66333008 -7.99609375 35.63867188 C-9.65318359 35.63770508 -9.65318359 35.63770508 -11.34375 35.63671875 C-12.35630859 35.63373779 -13.36886719 35.63075684 -14.41210938 35.62768555 C-17.03254024 35.78950388 -17.03254024 35.78950388 -18.8215332 37.39501953 C-20.27635973 39.37638054 -20.48788666 40.75221721 -20.6875 43.1875 C-20.790625 44.445625 -20.89375 45.70375 -21 47 C-20.31292969 46.95359375 -19.62585938 46.9071875 -18.91796875 46.859375 C-17.56638672 46.80523437 -17.56638672 46.80523437 -16.1875 46.75 C-15.29417969 46.70359375 -14.40085937 46.6571875 -13.48046875 46.609375 C-11 47 -11 47 -9.203125 48.73828125 C-7.89753315 51.19262436 -7.56728742 52.67515966 -7.5625 55.4375 C-7.53349609 56.54931641 -7.53349609 56.54931641 -7.50390625 57.68359375 C-8.26041214 61.21594016 -9.23058574 62.63385854 -12 65 C-15.51381438 65.69738361 -18.930619 65.60654869 -22.5 65.5 C-23.45003906 65.50257812 -24.40007813 65.50515625 -25.37890625 65.5078125 C-33.47597551 65.39392967 -33.47597551 65.39392967 -37 62 C-37.4609375 58.93359375 -37.4609375 58.93359375 -37.375 55.4375 C-37.36210938 54.28121094 -37.34921875 53.12492187 -37.3359375 51.93359375 C-37 49 -37 49 -35 47 C-32.6171875 46.8046875 -32.6171875 46.8046875 -29.875 46.875 C-28.96492188 46.89304688 -28.05484375 46.91109375 -27.1171875 46.9296875 C-26.41851562 46.95289063 -25.71984375 46.97609375 -25 47 C-25.061875 45.989375 -25.12375 44.97875 -25.1875 43.9375 C-24.97113455 39.39382549 -24.07864045 36.99738548 -22 33 C-18.99686252 31.49843126 -16.20932478 31.90718796 -12.875 31.9375 C-11.59367187 31.94652344 -10.31234375 31.95554687 -8.9921875 31.96484375 C-8.00476563 31.97644531 -7.01734375 31.98804687 -6 32 C-6 28.7 -6 25.4 -6 22 C-7.36125 21.87625 -7.36125 21.87625 -8.75 21.75 C-12.59837224 20.8619141 -13.79419422 20.26786041 -16 17 C-17.16913678 12.71583441 -17.52333665 9.26702558 -15.8125 5.125 C-11.19483668 -0.28881217 -6.92841683 -1.20019819 0 0 Z M-11.8125 6.25 C-13.64200211 8.94610837 -13.45351866 10.82536935 -13 14 C-11.62716577 16.54002013 -11.62716577 16.54002013 -9 18 C-4.92900647 18.81753559 -2.00640667 18.65416433 1.5 16.375 C3.45562482 13.27859404 3.60024477 11.60146865 3 8 C1.2018428 5.6238637 -0.22813948 4.34858217 -2.9375 3.125 C-6.46245386 2.91136643 -8.96426863 4.28570251 -11.8125 6.25 Z M-33 51 C-34.36952673 53.73905345 -34.12621361 55.97087332 -34 59 C-33.67 59.66 -33.34 60.32 -33 61 C-29.68751813 61.02888146 -26.37506833 61.04675799 -23.0625 61.0625 C-22.11697266 61.07087891 -21.17144531 61.07925781 -20.19726562 61.08789062 C-19.29814453 61.09111328 -18.39902344 61.09433594 -17.47265625 61.09765625 C-16.64000244 61.10289307 -15.80734863 61.10812988 -14.94946289 61.11352539 C-12.99483202 61.21643292 -12.99483202 61.21643292 -12 60 C-11.83946185 58.12678052 -11.83946185 58.12678052 -11.875 56 C-11.87242188 55.278125 -11.86984375 54.55625 -11.8671875 53.8125 C-11.80304724 51.97910585 -11.80304724 51.97910585 -13 51 C-14.4887186 50.91330568 -15.981445 50.89296506 -17.47265625 50.90234375 C-18.82133789 50.90717773 -18.82133789 50.90717773 -20.19726562 50.91210938 C-21.14279297 50.92048828 -22.08832031 50.92886719 -23.0625 50.9375 C-24.01189453 50.94201172 -24.96128906 50.94652344 -25.93945312 50.95117188 C-28.29303065 50.9629989 -30.64648477 50.97947975 -33 51 Z M4 52 C3.83946185 53.87321948 3.83946185 53.87321948 3.875 56 C3.87242188 56.721875 3.86984375 57.44375 3.8671875 58.1875 C3.80304724 60.02089415 3.80304724 60.02089415 5 61 C6.4887186 61.08669432 7.981445 61.10703494 9.47265625 61.09765625 C10.82133789 61.09282227 10.82133789 61.09282227 12.19726562 61.08789062 C13.61555664 61.07532227 13.61555664 61.07532227 15.0625 61.0625 C16.01189453 61.05798828 16.96128906 61.05347656 17.93945312 61.04882812 C20.29299531 61.03700128 22.64650532 61.01906521 25 61 C25 57.7 25 54.4 25 51 C21.68744674 50.97316564 18.37510817 50.9532422 15.0625 50.9375 C13.64420898 50.92493164 13.64420898 50.92493164 12.19726562 50.91210938 C11.29814453 50.90888672 10.39902344 50.90566406 9.47265625 50.90234375 C8.64000244 50.89710693 7.80734863 50.89187012 6.94946289 50.88647461 C4.99483202 50.78356708 4.99483202 50.78356708 4 52 Z " fill="#101C2A" transform="translate(37,0)"/>
</svg>
