<svg xmlns="http://www.w3.org/2000/svg" width="19.97" height="19.348" viewBox="0 0 19.97 19.348">
  <g id="pc-and-smartphone-svgrepo-com" transform="matrix(1, -0.017, 0.017, 1, 0, 0.343)">
    <path id="Path_35511" data-name="Path 35511" d="M44.2,201.255h-.871a.421.421,0,1,0,0,.843H44.2a.421.421,0,1,0,0-.843Z" transform="translate(-39.287 -184.607)" fill="#fff"/>
    <path id="Path_35512" data-name="Path 35512" d="M17.744,3.755H3.584a1.9,1.9,0,0,0-1.9,1.9V9.446h-.38A1.308,1.308,0,0,0,0,10.752v10.7a1.308,1.308,0,0,0,1.307,1.307H7.641a1.308,1.308,0,0,0,1.307-1.307v-.941h6.465a.632.632,0,0,0,0-1.264H13.544V18.042h4.2a1.9,1.9,0,0,0,1.9-1.9V5.652A1.9,1.9,0,0,0,17.744,3.755ZM1.307,10.71H7.641a.044.044,0,0,1,.042.042v8.327H1.264V10.752A.044.044,0,0,1,1.307,10.71ZM7.641,21.5H1.307a.044.044,0,0,1-.042-.042V19.922H7.683v1.535A.044.044,0,0,1,7.641,21.5Zm4.639-2.248H9.048V18.042H12.28Zm6.1-3.1a.633.633,0,0,1-.632.632h-8.8V10.752A1.308,1.308,0,0,0,7.641,9.446H2.951V5.652a.633.633,0,0,1,.632-.632H17.744a.633.633,0,0,1,.632.632Z" transform="translate(0 -3.755)" fill="#fff"/>
  </g>
</svg>
