<svg xmlns="http://www.w3.org/2000/svg" width="38.371" height="35.174" viewBox="0 0 38.371 35.174">
  <g id="perfume-svgrepo-com" transform="translate(0 -21.333)">
    <g id="Group_19040" data-name="Group 19040" transform="translate(0 21.333)">
      <g id="Group_19039" data-name="Group 19039" transform="translate(0 0)">
        <path id="Path_35909" data-name="Path 35909" d="M33.549,39.021C33.282,28.433,27,23.168,14.389,22.953v-.82a.8.8,0,0,0-.8-.8h-4.8a.8.8,0,0,0-.8.8v1.6a.8.8,0,0,0,.8.8h.8v1.6h-.8a.8.8,0,0,0-.8.8v6.285a11.977,11.977,0,0,0-1.96,21.694H5.6a.8.8,0,1,0,0,1.6h12.79a.8.8,0,1,0,0-1.6h-.438a11.977,11.977,0,0,0-1.96-21.694V26.929a.8.8,0,0,0-.8-.8h-.8V24.55c11.7.2,17.3,4.824,17.561,14.477-2.692.518-4.771,3.484-4.771,7.088,0,3.967,2.51,7.195,5.6,7.195s5.6-3.228,5.6-7.195C38.371,42.488,36.266,39.51,33.549,39.021ZM12.79,22.932v3.2h-1.6v-2.4a.8.8,0,0,0-.8-.8ZM14.96,34.56a10.392,10.392,0,1,1-5.938,0,.8.8,0,0,0,.571-.766V27.728h4.8v6.066A.8.8,0,0,0,14.96,34.56ZM32.776,51.71c-2.2,0-4-2.51-4-5.6s1.794-5.6,4-5.6,4,2.51,4,5.6S34.979,51.71,32.776,51.71Z" transform="translate(0 -21.333)" fill="#545454"/>
      </g>
    </g>
  </g>
</svg>
