<svg xmlns="http://www.w3.org/2000/svg" width="28.465" height="28.465" viewBox="0 0 28.465 28.465">
  <g id="ecommerce-price-shop-svgrepo-com" transform="translate(-4.008 -7)">
    <path id="Path_35513" data-name="Path 35513" d="M31.4,7H19.044a1.074,1.074,0,0,0-.757.317L4.321,21.283a1.074,1.074,0,0,0,0,1.515L16.675,35.152a1.074,1.074,0,0,0,1.515,0L32.156,21.186a1.074,1.074,0,0,0,.317-.757V8.074A1.074,1.074,0,0,0,31.4,7ZM30.325,19.983,17.433,32.875,6.6,22.04,19.49,9.149H30.325Z" transform="translate(0)" fill="#828990"/>
    <circle id="Ellipse_2544" data-name="Ellipse 2544" cx="1.841" cy="1.841" r="1.841" transform="translate(24.255 11.602)" fill="#828990"/>
  </g>
</svg>
