<svg xmlns="http://www.w3.org/2000/svg" width="54" height="54" viewBox="0 0 54 54">
  <g id="private-network-01-svgrepo-com" transform="translate(-0.12 -0.606)">
    <path id="private--network--01_1_" d="M51.851,16.618A9.637,9.637,0,0,0,42.224,6.99H16.618V5.761H42.224a10.856,10.856,0,1,1,0,21.712H37.1V26.244h5.121A9.636,9.636,0,0,0,51.851,16.618ZM1.869,37.1A9.64,9.64,0,0,1,11.5,27.475h5.121V26.246H11.5a10.857,10.857,0,1,0,0,21.714H37.1V46.73H11.5A9.638,9.638,0,0,1,1.869,37.1ZM.64,6.376a5.736,5.736,0,1,1,5.736,5.736A5.742,5.742,0,0,1,.64,6.376Zm1.229,0A4.507,4.507,0,1,0,6.376,1.869,4.512,4.512,0,0,0,1.869,6.376ZM53.081,47.345a5.736,5.736,0,1,1-5.736-5.736A5.743,5.743,0,0,1,53.081,47.345Zm-1.229,0a4.507,4.507,0,1,0-4.507,4.507A4.511,4.511,0,0,0,51.851,47.345ZM28.141,26.86a1.28,1.28,0,0,0-2.561,0,1.263,1.263,0,0,0,.666,1.1v1.886a.615.615,0,0,0,1.229,0V27.961A1.263,1.263,0,0,0,28.141,26.86Zm2.748-9.4v4.01a7.443,7.443,0,1,1-8.057,0v-4.01a4.029,4.029,0,0,1,8.057,0Zm-6.828,3.365a7.32,7.32,0,0,1,5.6,0V17.463a2.8,2.8,0,0,0-5.6,0S24.061,20.828,24.061,20.828Zm2.8.673a6.214,6.214,0,1,0,6.214,6.214A6.221,6.221,0,0,0,26.86,21.5Z" transform="translate(0.433 0.433)"/>
    <rect id="_Transparent_Rectangle" width="54" height="54" transform="translate(0.12 0.606)" fill="none"/>
  </g>
</svg>
