<svg xmlns="http://www.w3.org/2000/svg" width="39.384" height="39.384" viewBox="0 0 39.384 39.384">
  <g id="product-o-svgrepo-com" transform="translate(0.5 0.5)">
    <path id="Path_36390" data-name="Path 36390" d="M0,0H38.384V38.384H0Z" fill="none" stroke="#2b7856" stroke-width="1" fill-rule="evenodd"/>
    <path id="Path_36391" data-name="Path 36391" d="M22.363,1.892l9.424,5.441a7.2,7.2,0,0,1,3.6,6.233V24.448a7.2,7.2,0,0,1-3.6,6.233l-9.424,5.441a7.2,7.2,0,0,1-7.2,0L5.742,30.68a7.2,7.2,0,0,1-3.6-6.233V13.566a7.2,7.2,0,0,1,3.6-6.233l9.424-5.441A7.2,7.2,0,0,1,22.363,1.892ZM16.616,3.835l-.25.135L6.942,9.411A4.8,4.8,0,0,0,4.55,13.3l-.008.269V24.448a4.8,4.8,0,0,0,2.169,4.014l.23.141,9.424,5.441a4.8,4.8,0,0,0,4.547.135l.25-.135L30.587,28.6a4.8,4.8,0,0,0,2.391-3.886l.008-.269V13.566a4.8,4.8,0,0,0-2.169-4.014l-.23-.141L21.163,3.97a4.8,4.8,0,0,0-4.547-.135Zm10.569,9.843a1.2,1.2,0,0,1-.5,1.622L19.95,18.883V27a1.2,1.2,0,0,1-2.4,0V18.883L10.812,15.3a1.2,1.2,0,0,1,1.126-2.118L18.75,16.8l6.812-3.621a1.2,1.2,0,0,1,1.622.5Z" transform="translate(0.428 0.185)" fill="#fff" stroke="#2b7856" stroke-width="1"/>
  </g>
</svg>
