<svg id="renew-team-svgrepo-com" xmlns="http://www.w3.org/2000/svg" width="52" height="52" viewBox="0 0 52 52">
  <path id="renew--team_1_" d="M23.307,26.022a.579.579,0,0,1-.444.51,5.856,5.856,0,0,0-4.521,5.72v6.056H17.179V32.252A7.011,7.011,0,0,1,21.4,25.8a4.26,4.26,0,0,1,.893-7,3.065,3.065,0,0,0,.179-1.042,3.1,3.1,0,1,0-4.358,2.832.581.581,0,0,1-.1,1.1,5.856,5.856,0,0,0-4.518,5.72v6.054H12.332V27.409a7.013,7.013,0,0,1,4.219-6.455,4.259,4.259,0,1,1,7.041-2.567,4.426,4.426,0,0,1,1.257,0,4.265,4.265,0,1,1,7.039,2.567,7.013,7.013,0,0,1,4.221,6.455v6.052H34.945V27.409a5.856,5.856,0,0,0-4.518-5.72.581.581,0,0,1-.1-1.1,3.093,3.093,0,1,0-4.18-1.79,4.257,4.257,0,0,1,.9,7,7.012,7.012,0,0,1,4.219,6.455v6.052H30.1V32.252a5.855,5.855,0,0,0-4.516-5.72.581.581,0,0,1-.1-1.1,3.1,3.1,0,1,0-2.515,0A.585.585,0,0,1,23.307,26.022ZM3.8,25.38A20.425,20.425,0,0,1,22.742,5.044L20.579,7.207l.822.822,3.641-3.642L21.4.746l-.822.822,2.3,2.307A21.563,21.563,0,0,0,19.24,46.382l.268-1.132A20.334,20.334,0,0,1,3.8,25.38Zm42,0a21.5,21.5,0,0,0-16.6-21l-.268,1.132A20.407,20.407,0,0,1,25.7,45.726l2.163-2.161-.824-.824L23.4,46.384l3.641,3.642.824-.824-2.3-2.3A21.588,21.588,0,0,0,45.8,25.385Z" transform="translate(1.624 0.459)" fill="#545454"/>
  <rect id="_Transparent_Rectangle" width="52" height="52" fill="none"/>
</svg>
