<svg xmlns="http://www.w3.org/2000/svg" width="34.397" height="27.817" viewBox="0 0 34.397 27.817">
  <g id="reorder-1-svgrepo-com_1_" data-name="reorder-1-svgrepo-com (1)" transform="translate(-1.25 -3.25)" opacity="0.89">
    <path id="Path_35840" data-name="Path 35840" d="M2,19.112a6.112,6.112,0,0,1,.331-2.878,2.467,2.467,0,0,1,.9-.9A6.11,6.11,0,0,1,6.112,15a6.11,6.11,0,0,1,2.878.331,2.467,2.467,0,0,1,.9.9,6.112,6.112,0,0,1,.331,2.878,6.112,6.112,0,0,1-.331,2.878,2.467,2.467,0,0,1-.9.9,6.11,6.11,0,0,1-2.878.331,6.11,6.11,0,0,1-2.878-.331,2.467,2.467,0,0,1-.9-.9A6.112,6.112,0,0,1,2,19.112Z" transform="translate(0 7.093)" fill="none" stroke="#fff" stroke-width="1.5"/>
    <path id="Path_35841" data-name="Path 35841" d="M9.5,19.112a6.112,6.112,0,0,1,.331-2.878,2.467,2.467,0,0,1,.9-.9A6.111,6.111,0,0,1,13.612,15a6.111,6.111,0,0,1,2.878.331,2.466,2.466,0,0,1,.9.9,6.111,6.111,0,0,1,.331,2.878,6.111,6.111,0,0,1-.331,2.878,2.466,2.466,0,0,1-.9.9,6.111,6.111,0,0,1-2.878.331,6.111,6.111,0,0,1-2.878-.331,2.467,2.467,0,0,1-.9-.9A6.112,6.112,0,0,1,9.5,19.112Z" transform="translate(4.836 7.093)" fill="none" stroke="#fff" stroke-width="1.5"/>
    <path id="Path_35842" data-name="Path 35842" d="M17,19.112a6.111,6.111,0,0,1,.331-2.878,2.466,2.466,0,0,1,.9-.9A6.111,6.111,0,0,1,21.112,15a6.111,6.111,0,0,1,2.878.331,2.466,2.466,0,0,1,.9.9,6.111,6.111,0,0,1,.331,2.878,6.111,6.111,0,0,1-.331,2.878,2.466,2.466,0,0,1-.9.9,6.111,6.111,0,0,1-2.878.331,6.111,6.111,0,0,1-2.878-.331,2.466,2.466,0,0,1-.9-.9A6.111,6.111,0,0,1,17,19.112Z" transform="translate(9.673 7.093)" fill="none" stroke="#fff" stroke-width="1.5"/>
    <path id="Path_35843" data-name="Path 35843" d="M4.5,22.093V12.224c0-3.877,0-5.815,1.2-7.02S8.847,4,12.724,4h1.645m6.579,0c3.877,0,5.815,0,7.02,1.2s1.2,3.143,1.2,7.02v4.935m0,0,3.29-3.29m-3.29,3.29-3.29-3.29" transform="translate(1.612)" fill="none" stroke="#fff" stroke-linecap="round" stroke-linejoin="round" stroke-width="1.5"/>
  </g>
</svg>
