<svg xmlns="http://www.w3.org/2000/svg" width="45.29" height="36.532" viewBox="0 0 45.29 36.532">
  <g id="reorder-1-svgrepo-com_1_" data-name="reorder-1-svgrepo-com (1)" transform="translate(-1.25 -3.25)">
    <path id="Path_35840" data-name="Path 35840" d="M2,20.474c0-2.046,0-3.069.44-3.832a3.284,3.284,0,0,1,1.2-1.2C4.4,15,5.427,15,7.474,15s3.07,0,3.832.44a3.284,3.284,0,0,1,1.2,1.2c.44.762.44,1.785.44,3.832s0,3.069-.44,3.832a3.284,3.284,0,0,1-1.2,1.2c-.762.44-1.785.44-3.832.44s-3.07,0-3.832-.44a3.284,3.284,0,0,1-1.2-1.2C2,23.543,2,22.52,2,20.474Z" transform="translate(0 13.085)" fill="none" stroke="#111d2b" stroke-width="1.5"/>
    <path id="Path_35841" data-name="Path 35841" d="M9.5,20.474c0-2.046,0-3.069.44-3.832a3.284,3.284,0,0,1,1.2-1.2C11.9,15,12.927,15,14.974,15s3.069,0,3.832.44a3.283,3.283,0,0,1,1.2,1.2c.44.762.44,1.785.44,3.832s0,3.069-.44,3.832a3.283,3.283,0,0,1-1.2,1.2c-.762.44-1.785.44-3.832.44s-3.069,0-3.832-.44a3.284,3.284,0,0,1-1.2-1.2C9.5,23.543,9.5,22.52,9.5,20.474Z" transform="translate(8.921 13.085)" fill="none" stroke="#111d2b" stroke-width="1.5"/>
    <path id="Path_35842" data-name="Path 35842" d="M17,20.474c0-2.046,0-3.069.44-3.832a3.283,3.283,0,0,1,1.2-1.2C19.4,15,20.427,15,22.474,15s3.069,0,3.832.44a3.283,3.283,0,0,1,1.2,1.2c.44.762.44,1.785.44,3.832s0,3.069-.44,3.832a3.283,3.283,0,0,1-1.2,1.2c-.762.44-1.785.44-3.832.44s-3.069,0-3.832-.44a3.283,3.283,0,0,1-1.2-1.2C17,23.543,17,22.52,17,20.474Z" transform="translate(17.843 13.085)" fill="none" stroke="#111d2b" stroke-width="1.5"/>
    <path id="Path_35843" data-name="Path 35843" d="M4.5,28.085V14.948c0-5.161,0-7.741,1.6-9.344S10.287,4,15.448,4h2.19M26.4,4c5.161,0,7.741,0,9.344,1.6s1.6,4.184,1.6,9.344v6.569m0,0,4.379-4.379m-4.379,4.379-4.379-4.379" transform="translate(2.974)" fill="none" stroke="#111d2b" stroke-linecap="round" stroke-linejoin="round" stroke-width="1.5"/>
  </g>
</svg>
