<svg xmlns="http://www.w3.org/2000/svg" width="35.808" height="32.824" viewBox="0 0 35.808 32.824">
  <g id="scale-out-repository-svgrepo-com" transform="translate(0 -1)" opacity="0.65">
    <path id="Path_35487" data-name="Path 35487" d="M20.263,19.984H17.772l-2.581-1.94L13.4,20.432l3.387,2.536h3.476v2.984h8.952V17H20.263Zm2.984,0h2.984v2.984H23.247Z" transform="translate(6.593 7.872)" fill="#fff"/>
    <path id="Path_35488" data-name="Path 35488" d="M19.476,11.984H15v2.984h4.476v2.984h8.952V9H19.476Zm2.984,0h2.984v2.984H22.46Z" transform="translate(7.38 3.936)" fill="#fff"/>
    <path id="Path_35489" data-name="Path 35489" d="M20.263,1V3.984H16.787L13.4,6.52l1.79,2.387,2.581-1.94h2.492V9.952h8.952V1Zm5.968,5.968H23.247V3.984h2.984Z" transform="translate(6.593)" fill="#fff"/>
    <path id="Path_35490" data-name="Path 35490" d="M20.888,16.682V9.968C20.888,6.566,16.4,4,10.444,4S0,6.566,0,9.968V22.65c0,3.432,5.252,5.222,10.444,5.222s10.444-1.79,10.444-5.222Zm-10.444-9.7c4.551,0,7.46,1.761,7.46,2.984s-2.909,2.984-7.46,2.984-7.46-1.761-7.46-2.984S5.893,6.984,10.444,6.984ZM2.984,14.22a15.193,15.193,0,0,0,7.46,1.716A15.193,15.193,0,0,0,17.9,14.22v2.462c0,.582-2.566,2.238-7.46,2.238s-7.46-1.656-7.46-2.238V14.22Zm7.46,10.668c-4.894,0-7.46-1.656-7.46-2.238V20.427a17.742,17.742,0,0,0,7.46,1.477,17.742,17.742,0,0,0,7.46-1.477V22.65C17.9,23.232,15.338,24.888,10.444,24.888Z" transform="translate(0 1.476)" fill="#fff"/>
  </g>
</svg>
