<svg xmlns="http://www.w3.org/2000/svg" width="30.912" height="34.525" viewBox="0 0 30.912 34.525">
  <g id="secure-shield-password-protect-safe-svgrepo-com" transform="translate(-2.25 -0.375)" opacity="0.65">
    <path id="Path_35455" data-name="Path 35455" d="M17.706,34.9a3.112,3.112,0,0,1-1.632-.446l-6.152-3.6A14.99,14.99,0,0,1,2.25,17.934V8.1A3.243,3.243,0,0,1,4.368,5.062L16.591.573a3.243,3.243,0,0,1,2.23,0l12.223,4.49A3.243,3.243,0,0,1,33.162,8.1v9.831A14.99,14.99,0,0,1,25.49,30.856l-6.152,3.6a3.111,3.111,0,0,1-1.632.446Zm0-31.986a.679.679,0,0,0-.243,0L5.24,7.424a.7.7,0,0,0-.456.679v9.831A12.466,12.466,0,0,0,11.2,28.667l6.152,3.608a.74.74,0,0,0,.709,0l6.152-3.608h0a12.466,12.466,0,0,0,6.416-10.733V8.1a.7.7,0,0,0-.456-.659L17.949,2.954a.679.679,0,0,0-.243-.041Z" transform="translate(0 0)" fill="#fff"/>
    <path id="Path_35456" data-name="Path 35456" d="M16.475,22.481a1.318,1.318,0,0,1-.821-.294l-4.328-3.649a1.27,1.27,0,0,1,1.632-1.946l3.4,2.858,5.8-6.385a1.27,1.27,0,0,1,1.885,1.7l-6.568,7.3A1.287,1.287,0,0,1,16.475,22.481Z" transform="translate(0.116 0.166)" fill="#fff"/>
  </g>
</svg>
