<svg xmlns="http://www.w3.org/2000/svg" width="18.699" height="17.869" viewBox="0 0 18.699 17.869">
  <g id="server-2-svgrepo-com" transform="matrix(1, -0.017, 0.017, 1, 0.763, 1.057)">
    <path id="Path_35503" data-name="Path 35503" d="M11.292,19.758H5.379c-1.593,0-2.389,0-2.884-.495S2,17.972,2,16.379s0-2.389.495-2.884S3.786,13,5.379,13H15.516c1.593,0,2.389,0,2.884.495s.495,1.291.495,2.884,0,2.389-.495,2.884-1.291.495-2.884.495h-.845" transform="translate(-2 -3.707)" fill="none" stroke="#fff" stroke-linecap="round" stroke-width="1.5"/>
    <path id="Path_35504" data-name="Path 35504" d="M9.6,2h5.913c1.593,0,2.389,0,2.884.495s.495,1.291.495,2.884,0,2.389-.495,2.884-1.291.495-2.884.495H5.379c-1.593,0-2.389,0-2.884-.495S2,6.972,2,5.379s0-2.389.495-2.884S3.786,2,5.379,2h.845" transform="translate(-2 -1.999)" fill="none" stroke="#fff" stroke-linecap="round" stroke-width="1.5"/>
    <path id="Path_35505" data-name="Path 35505" d="M13.5,6h3.8" transform="translate(-3.785 -2.62)" fill="none" stroke="#fff" stroke-linecap="round" stroke-width="1.5"/>
    <path id="Path_35506" data-name="Path 35506" d="M6,6.69V5" transform="translate(-2.621 -2.465)" fill="none" stroke="#fff" stroke-linecap="round" stroke-width="1.5"/>
    <path id="Path_35507" data-name="Path 35507" d="M9,6.69V5" transform="translate(-3.087 -2.465)" fill="none" stroke="#fff" stroke-linecap="round" stroke-width="1.5"/>
    <path id="Path_35508" data-name="Path 35508" d="M13.5,17h3.8" transform="translate(-3.785 -4.328)" fill="none" stroke="#fff" stroke-linecap="round" stroke-width="1.5"/>
    <path id="Path_35509" data-name="Path 35509" d="M6,17.69V16" transform="translate(-2.621 -4.173)" fill="none" stroke="#fff" stroke-linecap="round" stroke-width="1.5"/>
    <path id="Path_35510" data-name="Path 35510" d="M9,17.69V16" transform="translate(-3.087 -4.173)" fill="none" stroke="#fff" stroke-linecap="round" stroke-width="1.5"/>
  </g>
</svg>
