<svg xmlns="http://www.w3.org/2000/svg" width="31.627" height="33.291" viewBox="0 0 31.627 33.291">
  <path id="server-cluster-svgrepo-com" d="M15.636,0a4.541,4.541,0,0,0-1.514,8.824v.938A6.559,6.559,0,0,0,10.5,12.071l-1.261-.739a4.541,4.541,0,1,0-2.095,2.281L9.21,14.828a6.582,6.582,0,0,0,0,2.636L7.139,18.677a4.541,4.541,0,1,0,2.095,2.281l1.261-.739a6.559,6.559,0,0,0,3.627,2.311v.938a4.541,4.541,0,1,0,3.027,0V22.53a6.559,6.559,0,0,0,3.627-2.311l1.261.739a4.541,4.541,0,1,0,2.095-2.281l-2.071-1.211a6.58,6.58,0,0,0,0-2.638l2.071-1.213a4.541,4.541,0,1,0-2.095-2.281l-1.261.737a6.561,6.561,0,0,0-3.627-2.309V8.824A4.541,4.541,0,0,0,15.636,0ZM14.122,4.541a1.514,1.514,0,1,1,1.514,1.514A1.514,1.514,0,0,1,14.122,4.541ZM5.04,8.073A1.514,1.514,0,1,0,6.554,9.587,1.514,1.514,0,0,0,5.04,8.073Zm0,13.119a1.514,1.514,0,1,0,1.514,1.514A1.514,1.514,0,0,0,5.04,21.192Zm9.082,6.559a1.514,1.514,0,1,1,1.514,1.514A1.514,1.514,0,0,1,14.122,27.751Zm12.11-6.559a1.514,1.514,0,1,0,1.514,1.514,1.514,1.514,0,0,0-1.514-1.514Zm0-13.119a1.514,1.514,0,1,0,1.514,1.514,1.514,1.514,0,0,0-1.514-1.514ZM12.4,14.733a3.534,3.534,0,1,1,1.827,4.652A3.534,3.534,0,0,1,12.4,14.733Z" transform="translate(0.178 0.5)" fill="#fff" stroke="#111d2b" stroke-width="1" fill-rule="evenodd" opacity="0.49"/>
</svg>
