<svg xmlns="http://www.w3.org/2000/svg" width="29.564" height="32.682" viewBox="0 0 29.564 32.682">
  <g id="shop-svgrepo-com" transform="translate(0.75 0.75)">
    <path id="Path_34490" data-name="Path 34490" d="M4,10.79V22.9a6.237,6.237,0,0,0,6.236,6.236H22.709A6.237,6.237,0,0,0,28.945,22.9V10.79" transform="translate(-2.441 2.041)" fill="none" stroke="#111d2b" stroke-linecap="round" stroke-linejoin="round" stroke-width="1.5"/>
    <path id="Path_34491" data-name="Path 34491" d="M3,7.237A4.677,4.677,0,0,1,7.677,2.56H26.386a4.677,4.677,0,0,1,4.677,4.677" transform="translate(-3 -2.561)" fill="none" stroke="#111d2b" stroke-linecap="round" stroke-linejoin="round" stroke-width="1.5"/>
    <path id="Path_34492" data-name="Path 34492" d="M24.355,8.56A4.677,4.677,0,0,1,15,8.56" transform="translate(3.709 0.794)" fill="none" stroke="#111d2b" stroke-linecap="round" stroke-linejoin="round" stroke-width="1.5"/>
    <path id="Path_34493" data-name="Path 34493" d="M18.355,8.56A4.677,4.677,0,0,1,9,8.56" transform="translate(0.355 0.794)" fill="none" stroke="#111d2b" stroke-linecap="round" stroke-linejoin="round" stroke-width="1.5"/>
    <path id="Path_34494" data-name="Path 34494" d="M12.355,8.56A4.677,4.677,0,0,1,3,8.56" transform="translate(-3 0.794)" fill="none" stroke="#111d2b" stroke-linecap="round" stroke-linejoin="round" stroke-width="1.5"/>
    <path id="Path_34495" data-name="Path 34495" d="M21,5.56v4.677" transform="translate(7.064 -0.883)" fill="none" stroke="#111d2b" stroke-linecap="round" stroke-linejoin="round" stroke-width="1.5"/>
    <path id="Path_34496" data-name="Path 34496" d="M15,5.56v4.677" transform="translate(3.709 -0.883)" fill="none" stroke="#111d2b" stroke-linecap="round" stroke-linejoin="round" stroke-width="1.5"/>
    <path id="Path_34497" data-name="Path 34497" d="M9,5.56v4.677" transform="translate(0.355 -0.883)" fill="none" stroke="#111d2b" stroke-linecap="round" stroke-linejoin="round" stroke-width="1.5"/>
    <path id="Path_34498" data-name="Path 34498" d="M3,5.56v4.677" transform="translate(-3 -0.883)" fill="none" stroke="#111d2b" stroke-linecap="round" stroke-linejoin="round" stroke-width="1.5"/>
    <path id="Path_34499" data-name="Path 34499" d="M12,15.56V21.8" transform="translate(2.032 4.708)" fill="none" stroke="#111d2b" stroke-linecap="round" stroke-linejoin="round" stroke-width="1.5"/>
  </g>
</svg>
