<svg xmlns="http://www.w3.org/2000/svg" width="41.544" height="37.35" viewBox="0 0 41.544 37.35">
  <g id="shuffle-svgrepo-com_5_" data-name="shuffle-svgrepo-com (5)" transform="translate(-2.247 -2.959)">
    <path id="Path_36473" data-name="Path 36473" d="M3,32.431l5.629.022A5.99,5.99,0,0,0,13.617,29.8l14.1-21.146A5.936,5.936,0,0,1,32.71,6.01l10.043.044" transform="translate(0 2.402)" fill="none" stroke="#545454" stroke-linecap="round" stroke-linejoin="round" stroke-width="1.5"/>
    <path id="Path_36474" data-name="Path 36474" d="M16,11.783,13.617,8.473A5.9,5.9,0,0,0,8.761,6L3,6.022" transform="translate(0 2.39)" fill="none" stroke="#545454" stroke-linecap="round" stroke-linejoin="round" stroke-width="1.5"/>
    <g id="Group_19285" data-name="Group 19285" transform="translate(25.008 29.094)">
      <path id="Path_36475" data-name="Path 36475" d="M19,22.4l4.415-4.415" transform="translate(-5.692 -12.24)" fill="none" stroke="#545454" stroke-linecap="round" stroke-linejoin="round" stroke-width="1.5"/>
      <path id="Path_36476" data-name="Path 36476" d="M12.971,15.38l2.693,3.465a6.014,6.014,0,0,0,4.746,2.318l10.308-.044" transform="translate(-12.971 -15.38)" fill="none" stroke="#545454" stroke-linecap="round" stroke-linejoin="round" stroke-width="1.5"/>
    </g>
    <path id="Path_36477" data-name="Path 36477" d="M23.415,8.435,19,4.02" transform="translate(19.316 0)" fill="none" stroke="#545454" stroke-linecap="round" stroke-linejoin="round" stroke-width="1.5"/>
  </g>
</svg>
