<svg xmlns="http://www.w3.org/2000/svg" width="50.036" height="44.88" viewBox="0 0 50.036 44.88">
  <g id="shuffle-svgrepo-com_5_" data-name="shuffle-svgrepo-com (5)" transform="translate(-2.247 -2.959)">
    <path id="Path_36473" data-name="Path 36473" d="M3,38.078l6.832.027a7.271,7.271,0,0,0,6.055-3.215L33.005,9.225A7.205,7.205,0,0,1,39.06,6.01l12.19.054" transform="translate(0 3.341)" fill="none" stroke="#000" stroke-linecap="round" stroke-linejoin="round" stroke-width="1.5"/>
    <path id="Path_36474" data-name="Path 36474" d="M18.78,13.02,15.886,9A7.165,7.165,0,0,0,9.992,6L3,6.027" transform="translate(0 3.324)" fill="none" stroke="#000" stroke-linecap="round" stroke-linejoin="round" stroke-width="1.5"/>
    <g id="Group_19285" data-name="Group 19285" transform="translate(29.712 34.454)">
      <path id="Path_36475" data-name="Path 36475" d="M19,23.339l5.358-5.358" transform="translate(-2.847 -11.013)" fill="none" stroke="#000" stroke-linecap="round" stroke-linejoin="round" stroke-width="1.5"/>
      <path id="Path_36476" data-name="Path 36476" d="M12.971,15.38l3.268,4.206A7.3,7.3,0,0,0,22,22.4l12.511-.054" transform="translate(-12.971 -15.38)" fill="none" stroke="#000" stroke-linecap="round" stroke-linejoin="round" stroke-width="1.5"/>
    </g>
    <path id="Path_36477" data-name="Path 36477" d="M24.358,9.378,19,4.02" transform="translate(26.865 0)" fill="none" stroke="#000" stroke-linecap="round" stroke-linejoin="round" stroke-width="1.5"/>
  </g>
</svg>
