<?xml version="1.0" encoding="UTF-8"?>
<svg version="1.1" xmlns="http://www.w3.org/2000/svg" width="76" height="76">
<path d="M0 0 C0.78375 0.04125 1.5675 0.0825 2.375 0.125 C10.375 15.26785714 10.375 15.26785714 10.375 21.125 C11.05175781 21.23972656 11.72851562 21.35445312 12.42578125 21.47265625 C15.91941744 22.24542081 19.19094936 23.36522648 22.5625 24.5625 C24.40908203 25.21025391 24.40908203 25.21025391 26.29296875 25.87109375 C29.375 27.125 29.375 27.125 31.375 29.125 C31.8125 31.5625 31.8125 31.5625 31.375 34.125 C27.76105524 36.67680573 23.86620387 38.23698748 19.75 39.8125 C18.62335937 40.24949219 17.49671875 40.68648437 16.3359375 41.13671875 C13.375 42.125 13.375 42.125 10.375 42.125 C10.20484375 42.73085938 10.0346875 43.33671875 9.859375 43.9609375 C5.10660173 60.39339827 5.10660173 60.39339827 2.375 63.125 C0 63.4375 0 63.4375 -2.625 63.125 C-5.48821548 60.26907006 -6.14698266 57.28273225 -7.10839844 53.43798828 C-8.37050484 48.8056534 -9.54117894 44.57459259 -13.63037109 41.72998047 C-18.17854232 39.49372445 -22.93920681 37.99803466 -27.84082031 36.74072266 C-29.625 36.125 -29.625 36.125 -31.625 34.125 C-32.0625 31.6875 -32.0625 31.6875 -31.625 29.125 C-28.33192049 26.68475961 -25.12613666 25.69779245 -21.20581055 24.64160156 C-16.78187799 23.33170666 -12.93869738 22.08623415 -10.28173828 18.11962891 C-8.07576288 13.55882039 -6.55504307 8.79917512 -5.2565918 3.90917969 C-4.18308212 0.87662897 -3.19230429 0.15201449 0 0 Z M-0.625 3.125 C-1.3977205 4.95753872 -2.16806961 6.79107742 -2.9375 8.625 C-3.36675781 9.6459375 -3.79601562 10.666875 -4.23828125 11.71875 C-5.61328627 14.85500696 -5.61328627 14.85500696 -6.12182617 17.17578125 C-7.0126049 20.49130812 -7.67700148 22.51861121 -10.64331055 24.41601562 C-13.17088891 25.47812147 -15.68881972 26.33041065 -18.3125 27.125 C-19.20517578 27.42277344 -20.09785156 27.72054687 -21.01757812 28.02734375 C-23.21250238 28.75507265 -25.41262639 29.45259634 -27.625 30.125 C-27.625 31.115 -27.625 32.105 -27.625 33.125 C-27.08609131 33.23755127 -26.54718262 33.35010254 -25.99194336 33.46606445 C-10.90643616 36.92568704 -10.90643616 36.92568704 -7.0703125 42.30517578 C-4.74947664 47.12034137 -3.32400014 52.16475149 -2.19311523 57.37841797 C-2.00563721 57.95479004 -1.81815918 58.53116211 -1.625 59.125 C-0.965 59.455 -0.305 59.785 0.375 60.125 C0.52308105 59.55579834 0.67116211 58.98659668 0.82373047 58.40014648 C5.24154841 42.5118144 5.24154841 42.5118144 10.52050781 38.49072266 C15.55495283 35.85642003 20.85343627 34.37561059 26.375 33.125 C26.375 32.135 26.375 31.145 26.375 30.125 C25.1684375 29.85171875 23.961875 29.5784375 22.71875 29.296875 C10.34063633 25.87888346 10.34063633 25.87888346 6.73730469 20.83056641 C3.86528235 15.20278522 1.9628149 9.2283255 0.375 3.125 C0.045 3.125 -0.285 3.125 -0.625 3.125 Z " fill="#FFFFFF" transform="translate(31.625,12.875)"/>
<path d="M0 0 C1.32 0 2.64 0 4 0 C4 2.64 4 5.28 4 8 C6.64 8 9.28 8 12 8 C11.67 8.99 11.34 9.98 11 11 C8.69 11 6.38 11 4 11 C4 13.31 4 15.62 4 18 C2.68 18.33 1.36 18.66 0 19 C0 16.36 0 13.72 0 11 C-2.64 11 -5.28 11 -8 11 C-8 10.01 -8 9.02 -8 8 C-5.36 8 -2.72 8 0 8 C0 5.36 0 2.72 0 0 Z " fill="#52CD97" transform="translate(51,0)"/>
<path d="M0 0 C1.32 0 2.64 0 4 0 C4 1.65 4 3.3 4 5 C5.65 5 7.3 5 9 5 C9 5.99 9 6.98 9 8 C7.35 8 5.7 8 4 8 C4 9.65 4 11.3 4 13 C2.68 13 1.36 13 0 13 C0 11.35 0 9.7 0 8 C-1.65 8 -3.3 8 -5 8 C-5 7.01 -5 6.02 -5 5 C-3.35 5 -1.7 5 0 5 C0 3.35 0 1.7 0 0 Z " fill="#53CD97" transform="translate(67,19)"/>
</svg>
