<svg xmlns="http://www.w3.org/2000/svg" width="36.396" height="36.397" viewBox="0 0 36.396 36.397">
  <g id="smartphone-location-svgrepo-com" transform="translate(-0.75 -0.75)">
    <path id="Path_36388" data-name="Path 36388" d="M23.651,9.14h9.572A3.191,3.191,0,0,1,36.4,12.314V28.167a3.191,3.191,0,0,1-3.174,3.174H4.674A3.191,3.191,0,0,1,1.5,28.167V12.314A3.191,3.191,0,0,1,4.674,9.14h6.414" transform="translate(0 5.056)" fill="none" stroke="#fff" stroke-width="1.5"/>
    <line id="Line_2316" data-name="Line 2316" y2="22.201" transform="translate(30.049 14.196)" fill="none" stroke="#fff" stroke-width="1.5"/>
    <path id="Path_36389" data-name="Path 36389" d="M22.14,9.227c0,5.168-7.926,12.9-7.926,12.9S6.27,14.4,6.27,9.227A7.843,7.843,0,0,1,14.213,1.5,7.827,7.827,0,0,1,22.14,9.227Z" transform="translate(3.156 0)" fill="none" stroke="#fff" stroke-width="1.5"/>
    <circle id="Ellipse_3206" data-name="Ellipse 3206" cx="2.376" cy="2.376" r="2.376" transform="translate(14.993 6.269)" fill="none" stroke="#fff" stroke-width="1.5"/>
  </g>
</svg>
