<svg xmlns="http://www.w3.org/2000/svg" width="33.896" height="33.896" viewBox="0 0 33.896 33.896">
  <g id="support-svgrepo-com" transform="translate(-2.25 -2.25)" opacity="0.89">
    <path id="Path_36364" data-name="Path 36364" d="M32.4,16.2H28.8a3.6,3.6,0,0,0-3.6,3.6v3.6A3.6,3.6,0,0,0,28.8,27h0a3.6,3.6,0,0,0,3.6-3.6V16.2A16.2,16.2,0,0,0,0,16.2v7.2A3.6,3.6,0,0,0,3.6,27h0a3.6,3.6,0,0,0,3.6-3.6V19.8a3.6,3.6,0,0,0-3.6-3.6H0" transform="translate(3 3)" fill="none" stroke="#fff" stroke-linecap="square" stroke-width="1.5"/>
    <path id="Path_36365" data-name="Path 36365" d="M26.6,14v7.2q0,5.4-3.6,5.4H14" transform="translate(8.798 8.798)" fill="none" stroke="#fff" stroke-linecap="square" stroke-width="1.5"/>
  </g>
</svg>
