<svg xmlns="http://www.w3.org/2000/svg" width="41.725" height="39.375" viewBox="0 0 41.725 39.375">
  <g id="unity-svgrepo-com" transform="translate(0.5 -14.27)">
    <g id="Group_19116" data-name="Group 19116" transform="translate(0 14.77)">
      <path id="Path_36083" data-name="Path 36083" d="M32.78,28.957a12.531,12.531,0,1,0-24.836,0A12.527,12.527,0,1,0,20.362,50.386,12.526,12.526,0,1,0,32.78,28.957ZM20.362,16.336a10.96,10.96,0,0,1,10.9,12.129,12.5,12.5,0,0,0-10.9,2.378,12.5,12.5,0,0,0-10.9-2.378,10.96,10.96,0,0,1,10.9-12.129Zm0,16.615A10.96,10.96,0,0,1,23.155,37.9a10.964,10.964,0,0,1-5.586,0A10.961,10.961,0,0,1,20.362,32.951ZM16.084,37.4a11.011,11.011,0,0,1-6.347-7.384,10.941,10.941,0,0,1,9.452,1.9A12.525,12.525,0,0,0,16.084,37.4Zm5.45-5.483a10.941,10.941,0,0,1,9.452-1.9A11.012,11.012,0,0,1,24.64,37.4,12.528,12.528,0,0,0,21.534,31.913Zm-9,19.666A10.964,10.964,0,0,1,8.253,30.519a12.582,12.582,0,0,0,7.523,8.439A12.456,12.456,0,0,0,19.19,49.316,10.906,10.906,0,0,1,12.531,51.579Zm4.7-10.964a11.033,11.033,0,0,1,.063-1.165,12.535,12.535,0,0,0,6.14,0,10.933,10.933,0,0,1-3.07,8.828A10.926,10.926,0,0,1,17.23,40.614ZM28.194,51.579a10.906,10.906,0,0,1-6.66-2.263,12.458,12.458,0,0,0,3.414-10.358,12.583,12.583,0,0,0,7.523-8.439,10.964,10.964,0,0,1-4.278,21.059Z" transform="translate(0 -14.77)" stroke="#f3f3ee" stroke-width="1"/>
    </g>
  </g>
</svg>
