<svg xmlns="http://www.w3.org/2000/svg" width="28.915" height="29.427" viewBox="0 0 28.915 29.427">
  <g id="upload-svgrepo-com" transform="translate(-0.75 -0.238)">
    <path id="Path_35442" data-name="Path 35442" d="M21.811,9c2.873.016,4.428.143,5.443,1.158,1.161,1.161,1.161,3.028,1.161,6.764v1.321c0,3.736,0,5.6-1.161,6.764s-3.028,1.161-6.764,1.161H9.924c-3.736,0-5.6,0-6.764-1.161S2,21.98,2,18.245V16.924c0-3.736,0-5.6,1.161-6.764C4.175,9.145,5.731,9.018,8.6,9" transform="translate(0 2.246)" fill="none" stroke="#fff" stroke-linecap="round" stroke-width="2.5" opacity="0.5"/>
    <path id="Path_35443" data-name="Path 35443" d="M12.962,19.17V2m0,0,3.962,4.623M12.962,2,9,6.623" transform="translate(2.245 0)" fill="none" stroke="#fff" stroke-linecap="round" stroke-linejoin="round" stroke-width="2.5"/>
  </g>
</svg>
