<svg xmlns="http://www.w3.org/2000/svg" width="24.917" height="24.951" viewBox="0 0 24.917 24.951">
  <path id="workflow-svgrepo-com_2_" data-name="workflow-svgrepo-com (2)" d="M8.362,17.424H2.7a1.133,1.133,0,0,0-1.133,1.133V24.22A1.133,1.133,0,0,0,2.7,25.352H8.362A1.133,1.133,0,0,0,9.494,24.22v-1.7h3.964a1.133,1.133,0,1,0,0-2.265H9.494v-1.7A1.133,1.133,0,0,0,8.362,17.424ZM7.229,23.087h-3.4v-3.4h3.4ZM4.4,9.9v4.691a1.133,1.133,0,1,0,2.265,0V9.9A4.53,4.53,0,1,0,4.4,9.9ZM5.53,3.267A2.265,2.265,0,1,1,3.265,5.532,2.265,2.265,0,0,1,5.53,3.267ZM22.519,17.019V13.46a1.133,1.133,0,0,0-2.265,0v3.559a4.53,4.53,0,1,0,2.265,0Zm-1.133,6.635a2.265,2.265,0,1,1,2.265-2.265A2.265,2.265,0,0,1,21.386,23.653ZM18.555,9.5h5.663A1.133,1.133,0,0,0,25.35,8.364V2.7a1.133,1.133,0,0,0-1.133-1.133H18.555A1.133,1.133,0,0,0,17.422,2.7V4.4H13.458a1.133,1.133,0,0,0,0,2.265h3.964v1.7A1.133,1.133,0,0,0,18.555,9.5Zm1.133-5.663h3.4v3.4h-3.4Z" transform="translate(-1 -0.985)" fill="#f3f5f5"/>
</svg>
