<svg xmlns="http://www.w3.org/2000/svg" width="29.467" height="41.462" viewBox="0 0 29.467 41.462">
  <g id="bulb-svgrepo-com" transform="translate(-4.246 -1.279)">
    <path id="Path_34541" data-name="Path 34541" d="M32.963,16.01A13.979,13.979,0,0,0,18.744,2.031,14.178,14.178,0,0,0,5.005,15.491a13.979,13.979,0,0,0,6.171,12.1,3.994,3.994,0,0,1,1.817,3.335v3.055H24.975V30.928a3.994,3.994,0,0,1,1.8-3.335A13.98,13.98,0,0,0,32.963,16.01Z" transform="translate(0 0)" fill="none" stroke="#545454" stroke-linecap="round" stroke-linejoin="round" stroke-width="1.5"/>
    <path id="Path_34542" data-name="Path 34542" d="M20.982,21.04A9.985,9.985,0,0,1,9,21.04" transform="translate(3.992 18.954)" fill="none" stroke="#545454" stroke-linecap="round" stroke-linejoin="round" stroke-width="1.5"/>
  </g>
</svg>
