<svg xmlns="http://www.w3.org/2000/svg" width="59.791" height="57.287" viewBox="0 0 59.791 57.287">
  <g id="Group_19113" data-name="Group 19113" transform="translate(2.067 3.938)">
    <path id="Path_35900" data-name="Path 35900" d="M6.729,16.571l2.1,5.8-4.3,2.893,2.69,7.068h9.859L9.892,14.508,27.663,2.3l13.609,9.525L24.23,24.817l-2.173-5.244,9.771-7.3-4.165-3L17.075,16.933l7.762,20.731H3.2L-2.22,22.647Z" transform="translate(0.153 -6.237)" fill="#ffffff"></path>
    <path id="Subtraction_165" data-name="Subtraction 165" d="M24.167,31.067h0L0,13.775,17.728,0,30.654,9.584,24.168,31.065ZM17.3,6.652,9.214,13.563l11.312,8.327,4.279-9.731Z" transform="translate(27.07 7.607)" fill="#ffffff"></path>
    <path id="Path_35903" data-name="Path 35903" d="M-4.347-14.07H15.522L13.857-8.158H3.508l1.625,6.05H15.872l5.717-19L40.653-7.26,37.2,3.791H24.159l2.057-5.9h6.146L33.61-6.022l-8.251-5.717L20.21,3.791H.834Z" transform="translate(9.176 49.559)" fill="#ffffff"></path>
  </g>
</svg>
