<svg xmlns="http://www.w3.org/2000/svg" width="40.99" height="40.988" viewBox="0 0 40.99 40.988">
  <g id="plug-disconnected-svgrepo-com" transform="translate(-2.004 -2.002)" opacity="0.66">
    <path id="Path_35530" data-name="Path 35530" d="M30.128,9.389a9.4,9.4,0,0,1-.845,12.317l-3.321,3.321a1.281,1.281,0,0,1-1.811,0L12.678,13.554a1.281,1.281,0,0,1,0-1.812L16,8.422a9.4,9.4,0,0,1,12.318-.844l5.2-5.2a1.281,1.281,0,1,1,1.812,1.811ZM25.057,22.31l2.415-2.415a6.832,6.832,0,1,0-9.661-9.662L15.4,12.649Z" transform="translate(7.291 0)" fill="#545454"/>
    <path id="Path_35531" data-name="Path 35531" d="M20.4,11.371a1.281,1.281,0,0,1,0,1.812l-3.632,3.632,5.033,5.033,3.63-3.63a1.281,1.281,0,0,1,1.811,1.811l-3.63,3.63L25.03,25.07a1.281,1.281,0,0,1,0,1.812L21.708,30.2a9.4,9.4,0,0,1-12.318.845l-5.2,5.2A1.281,1.281,0,0,1,2.38,34.436l5.2-5.2a9.4,9.4,0,0,1,.845-12.317L11.745,13.6a1.281,1.281,0,0,1,1.812,0l1.4,1.4,3.632-3.632A1.281,1.281,0,0,1,20.4,11.371ZM10.247,28.4a6.832,6.832,0,0,0,9.65-.011l2.415-2.415-9.661-9.662L10.235,18.73a6.832,6.832,0,0,0-.011,9.65l.011.011Z" transform="translate(0 6.367)" fill="#545454"/>
  </g>
</svg>
