<svg xmlns="http://www.w3.org/2000/svg" width="17.026" height="18.727" viewBox="0 0 17.026 18.727">
  <path id="shield-check-svgrepo-com_1_" data-name="shield-check-svgrepo-com (1)" d="M8.752,11.557l1.9,1.9,3.8-3.8m4.752,1.9c0,4.24-5.189,7.312-6.994,8.252a1.524,1.524,0,0,1-.428.179,1.078,1.078,0,0,1-.363,0,1.524,1.524,0,0,1-.428-.179C9.189,18.869,4,15.8,4,11.557V7.962A4.326,4.326,0,0,1,4.124,6.5a1.9,1.9,0,0,1,.52-.75,4.326,4.326,0,0,1,1.329-.631l5.1-1.911a2.019,2.019,0,0,1,.4-.126.951.951,0,0,1,.272,0,2.02,2.02,0,0,1,.4.126l5.1,1.911a4.325,4.325,0,0,1,1.329.631,1.9,1.9,0,0,1,.52.75,4.324,4.324,0,0,1,.124,1.466Z" transform="matrix(1, -0.017, 0.017, 1, -3.29, -1.969)" fill="none" stroke="#fff" stroke-linecap="round" stroke-linejoin="round" stroke-width="1.5"/>
</svg>
