<svg xmlns="http://www.w3.org/2000/svg" width="35.478" height="32.073" viewBox="0 0 35.478 32.073">
  <g id="shopping-cart-svgrepo-com" transform="translate(0.759 0.751)">
    <path id="Path_34525" data-name="Path 34525" d="M19.985,24.34A3.385,3.385,0,1,0,16.6,20.955,3.385,3.385,0,0,0,19.985,24.34Z" transform="translate(8.112 6.232)" fill="none" stroke="#545454" stroke-linecap="round" stroke-linejoin="round" stroke-width="1.5"/>
    <path id="Path_34526" data-name="Path 34526" d="M9.985,24.34A3.385,3.385,0,1,0,6.6,20.955,3.385,3.385,0,0,0,9.985,24.34Z" transform="translate(1.186 6.232)" fill="none" stroke="#545454" stroke-linecap="round" stroke-linejoin="round" stroke-width="1.5"/>
    <path id="Path_34527" data-name="Path 34527" d="M2,3.6s7.853-.1,6.77,6.77L7.6,17.239a5.535,5.535,0,0,0,5.636,6.669h13.54a8.293,8.293,0,0,0,7.887-6.669l1.168-6.956a5.569,5.569,0,0,0-5.67-6.77H15.439" transform="translate(-1.999 -3.508)" fill="none" stroke="#545454" stroke-linecap="round" stroke-linejoin="round" stroke-width="1.5"/>
  </g>
</svg>
