<svg xmlns="http://www.w3.org/2000/svg" width="178.438" height="34.825" viewBox="0 0 178.438 34.825">
  <g id="Group_19295" data-name="Group 19295" transform="translate(-137 -23)">
    <g id="Group_19028" data-name="Group 19028" transform="translate(182.943 29.314)">
      <path id="Path_35906" data-name="Path 35906" d="M7.534.96A41.121,41.121,0,0,1,1.984.512v-2.27a27.573,27.573,0,0,0,5.718.7A7.352,7.352,0,0,0,10.73-1.52a1.737,1.737,0,0,0,.953-1.724V-5.6a1.888,1.888,0,0,0-.673-1.654,4.264,4.264,0,0,0-2.355-.477H6.525A5.419,5.419,0,0,1,2.741-8.794,4.37,4.37,0,0,1,1.62-12.1v-1.458a4.064,4.064,0,0,1,.659-2.411,3.943,3.943,0,0,1,2.214-1.373,16.08,16.08,0,0,1,4.275-.448,45.393,45.393,0,0,1,4.681.308v2.046a35.834,35.834,0,0,0-4.877-.477,7.683,7.683,0,0,0-3.448.5,1.909,1.909,0,0,0-.869,1.766v2.074a1.52,1.52,0,0,0,.687,1.388,4.692,4.692,0,0,0,2.369.434H9.5a7.673,7.673,0,0,1,2.929.448,2.768,2.768,0,0,1,1.486,1.359,5.768,5.768,0,0,1,.434,2.453v1.317a5.643,5.643,0,0,1-.715,3.055,3.908,3.908,0,0,1-2.2,1.6A13.079,13.079,0,0,1,7.534.96ZM23.624-6.664,17.037-17.512h3.111L25-8.962l4.849-8.549h3.111L26.343-6.748V.68H23.624ZM38.257-17.512a2.554,2.554,0,0,1,2.132,1.259L49.636-2.487V-17.512h2.383V-1.5S52,.6,50.219.68s-2.861-2.3-2.861-2.3L38.844-14.6V.68H36.462V-15.606S36.771-17.542,38.257-17.512Zm20.045.893a3.292,3.292,0,0,1,1.921-.893h9.65v1.906H61.911s-1.857-.086-1.9.919,0,1.457,0,2.943v2.081h7.072v1.906H60.012v5.139a1.331,1.331,0,0,0,.262,1c.351.348,1.5.4,1.5.4h8.378V.68H60.468A3.849,3.849,0,0,1,58.461.087a2.818,2.818,0,0,1-.808-1.709v-12.84A3.966,3.966,0,0,1,58.3-16.618Zm16.533-.893h6.391a18.753,18.753,0,0,1,3.77.294,3.445,3.445,0,0,1,1.99,1.051,3.382,3.382,0,0,1,.631,2.214v3.139A2.836,2.836,0,0,1,86.285-8.3a5.992,5.992,0,0,1-3.378.883l5.83,8.1H85.4L80.189-7.084H77.554V.68H74.835Zm6.279,8.633a6.322,6.322,0,0,0,2.9-.491,1.856,1.856,0,0,0,.883-1.78v-2.523q0-2.046-3.532-2.046H77.554v6.839ZM101.3.96A20.624,20.624,0,0,1,99.011.848a13.123,13.123,0,0,1-2.088-.42,7.921,7.921,0,0,1-2.074-.855,4.072,4.072,0,0,1-1.373-1.416,4.123,4.123,0,0,1-.561-2.13v-8.605a4.46,4.46,0,0,1,.813-2.691A4.559,4.559,0,0,1,95.97-16.9a16.276,16.276,0,0,1,2.621-.687,16.3,16.3,0,0,1,2.7-.21,39.961,39.961,0,0,1,6.279.448v2.1a25.965,25.965,0,0,0-3.041-.462,31.518,31.518,0,0,0-3.181-.21q-5.746,0-5.746,3.308v8.577a2.415,2.415,0,0,0,.547,1.57,3.106,3.106,0,0,0,1.5.981,8.454,8.454,0,0,0,1.794.463,14.592,14.592,0,0,0,2.018.126,17.429,17.429,0,0,0,4.008-.5V-7.757h-4.261V-9.663h6.783V.119A29.968,29.968,0,0,1,101.3.96Zm11.773-18.472h2.719V.68h-2.719ZM128.513.96q-7.652,0-7.652-4.933v-8.633q0-5.214,7.652-5.214a22.812,22.812,0,0,1,4.989.533v2.018a20.472,20.472,0,0,0-4.933-.673,12.592,12.592,0,0,0-1.906.126,6.985,6.985,0,0,0-1.57.434,2.7,2.7,0,0,0-1.626,2.747v8.521q0,3.139,5.214,3.139a20.472,20.472,0,0,0,4.933-.673V.428A23.351,23.351,0,0,1,128.513.96Z" transform="translate(-1.62 17.82)" fill="#fff" stroke="#fff" stroke-width="1"/>
      <path id="Path_35907" data-name="Path 35907" d="M1.008-7.833h.709v4.844H1.008Zm5.04,0H6.9l2.579,4v-4H10.1v4.844H9.248L6.669-7.057v4.068H6.048Zm9.554.508H14v-.508h3.923v.508h-1.6v4.337H15.6Zm6.209-.508H25v.508H22.52v1.582h2.235v.508H22.52V-3.5h2.549v.508H21.812Zm7.341,0h.709V-3.5h2.33v.508H29.153Zm6.9,0h.709V-3.5h2.33v.508H36.056Zm6.9,0h.709v4.844h-.709Zm7.078,4.919a5.261,5.261,0,0,1-.6-.03,3.356,3.356,0,0,1-.544-.112,2.04,2.04,0,0,1-.541-.228A1.074,1.074,0,0,1,48-3.661a1.116,1.116,0,0,1-.146-.567V-6.52a1.206,1.206,0,0,1,.212-.717,1.19,1.19,0,0,1,.584-.433,4.169,4.169,0,0,1,.683-.183,4.16,4.16,0,0,1,.7-.056,10.2,10.2,0,0,1,1.636.119v.56a6.632,6.632,0,0,0-.793-.123,8.041,8.041,0,0,0-.829-.056q-1.5,0-1.5.881v2.284a.652.652,0,0,0,.142.418.808.808,0,0,0,.391.261,2.165,2.165,0,0,0,.467.123,3.723,3.723,0,0,0,.526.034,4.45,4.45,0,0,0,1.045-.134V-5.236h-1.11v-.508h1.768v2.6A7.651,7.651,0,0,1,50.037-2.915Zm5.931-4.919h3.185v.508H56.676v1.582h2.235v.508H56.676V-3.5h2.549v.508H55.968Zm7.341,0h.855l2.579,4v-4h.621v4.844h-.855L63.93-7.057v4.068h-.621Zm9.554.508H71.256v-.508h3.923v.508h-1.6v4.337h-.716ZM85.223-2.915a10.492,10.492,0,0,1-1.446-.119v-.6a7.04,7.04,0,0,0,1.49.187,1.879,1.879,0,0,0,.789-.123.464.464,0,0,0,.248-.459v-.627a.508.508,0,0,0-.175-.44,1.092,1.092,0,0,0-.614-.127H84.96a1.392,1.392,0,0,1-.986-.284,1.179,1.179,0,0,1-.292-.881v-.388a1.1,1.1,0,0,1,.172-.642,1.025,1.025,0,0,1,.577-.366,4.105,4.105,0,0,1,1.114-.119,11.58,11.58,0,0,1,1.22.082v.545a9.145,9.145,0,0,0-1.271-.127,1.964,1.964,0,0,0-.9.134.512.512,0,0,0-.226.47v.552a.407.407,0,0,0,.179.369,1.2,1.2,0,0,0,.617.116h.57a1.961,1.961,0,0,1,.763.119.728.728,0,0,1,.387.362A1.565,1.565,0,0,1,87-4.631v.351a1.529,1.529,0,0,1-.186.814,1.02,1.02,0,0,1-.573.425A3.34,3.34,0,0,1,85.223-2.915Zm7.056-2.03L90.563-7.833h.811l1.264,2.277L93.9-7.833h.811L92.988-4.967v1.978h-.709Zm7.575,2.03a10.492,10.492,0,0,1-1.446-.119v-.6a7.039,7.039,0,0,0,1.49.187,1.879,1.879,0,0,0,.789-.123.464.464,0,0,0,.248-.459v-.627a.508.508,0,0,0-.175-.44,1.092,1.092,0,0,0-.614-.127h-.555a1.391,1.391,0,0,1-.986-.284,1.179,1.179,0,0,1-.292-.881v-.388a1.1,1.1,0,0,1,.172-.642,1.025,1.025,0,0,1,.577-.366,4.105,4.105,0,0,1,1.114-.119,11.581,11.581,0,0,1,1.22.082v.545a9.145,9.145,0,0,0-1.271-.127,1.964,1.964,0,0,0-.9.134A.512.512,0,0,0,99-6.8v.552a.407.407,0,0,0,.179.369,1.2,1.2,0,0,0,.617.116h.57a1.961,1.961,0,0,1,.763.119.728.728,0,0,1,.387.362,1.565,1.565,0,0,1,.113.653v.351a1.529,1.529,0,0,1-.186.814,1.02,1.02,0,0,1-.573.425A3.34,3.34,0,0,1,99.854-2.915Zm7.064-4.411h-1.607v-.508h3.923v.508h-1.6v4.337h-.716Zm6.209-.508h3.185v.508h-2.476v1.582h2.235v.508h-2.235V-3.5h2.549v.508h-3.258Zm7.341,0h1.059L123.046-3.8l.022.007,1.439-4.038h1.023v4.844h-.621v-4.1h-.037l-1.527,4.1h-.635l-1.57-4.1H121.1v4.1h-.636Zm10.76,4.919a10.492,10.492,0,0,1-1.446-.119v-.6a7.039,7.039,0,0,0,1.49.187,1.879,1.879,0,0,0,.789-.123.465.465,0,0,0,.248-.459v-.627a.508.508,0,0,0-.175-.44,1.092,1.092,0,0,0-.614-.127h-.555a1.392,1.392,0,0,1-.986-.284,1.179,1.179,0,0,1-.292-.881v-.388a1.1,1.1,0,0,1,.172-.642,1.025,1.025,0,0,1,.577-.366,4.106,4.106,0,0,1,1.114-.119,11.579,11.579,0,0,1,1.22.082v.545a9.144,9.144,0,0,0-1.271-.127,1.964,1.964,0,0,0-.9.134.512.512,0,0,0-.226.47v.552a.407.407,0,0,0,.179.369,1.2,1.2,0,0,0,.617.116h.57a1.961,1.961,0,0,1,.763.119.728.728,0,0,1,.387.362,1.565,1.565,0,0,1,.113.653v.351a1.529,1.529,0,0,1-.186.814,1.02,1.02,0,0,1-.573.425A3.34,3.34,0,0,1,131.227-2.915Z" transform="translate(-1.008 31.176)" fill="#fff" stroke="#fff" stroke-width="0.5"/>
    </g>
    <g id="Group_19072" data-name="Group 19072" transform="translate(137 23)">
      <path id="Path_35900" data-name="Path 35900" d="M3.191,10.928l1.269,3.506-2.6,1.749,1.626,4.273h5.96L5.1,9.681,15.847,2.3l8.227,5.759-10.3,7.854-1.314-3.171,5.908-4.413L15.847,6.517l-6.4,4.63L14.138,23.68H1.055L-2.22,14.6Z" transform="translate(2.22 -2.3)" fill="#fff"/>
      <path id="Subtraction_165" data-name="Subtraction 165" d="M14.611,18.782h0L0,8.328,10.718,0l7.814,5.794L14.611,18.781ZM10.457,4.022,5.571,8.2l6.839,5.035L15,7.351Z" transform="translate(17.616 6.98)" fill="#fff"/>
      <path id="Path_35903" data-name="Path 35903" d="M-4.347-16.854H7.666L6.659-13.279H.4l.982,3.658H7.877l3.457-11.488,11.525,8.373L20.77-6.055H12.887l1.244-3.566h3.716l.754-2.367-4.988-3.456L10.5-6.055H-1.215Z" transform="translate(8.516 40.69)" fill="#fff"/>
    </g>
  </g>
</svg>
