<svg xmlns="http://www.w3.org/2000/svg" xmlns:xlink="http://www.w3.org/1999/xlink" width="148.766" height="17.673" viewBox="0 0 148.766 17.673">
  <defs>
    <linearGradient id="linear-gradient" x1="1.114" y1="0.5" x2="0" y2="0.5" gradientUnits="objectBoundingBox">
      <stop offset="0" stop-color="#d800d1"/>
      <stop offset="0.316" stop-color="#0081b1"/>
      <stop offset="0.781" stop-color="#00daa6"/>
      <stop offset="1" stop-color="#00fff6"/>
    </linearGradient>
  </defs>
  <g id="Group_18734" data-name="Group 18734" transform="translate(-990 -4141.601)">
    <path id="Path_35444" data-name="Path 35444" d="M3.57-34.431H16.14v2.763H7.453v3.958h7.866v2.763H7.453v6.671H3.57Zm19.216,16.4a4.9,4.9,0,0,1-3.248-.834,3.352,3.352,0,0,1-.933-2.626v-8.836h3.634v8.339a3.021,3.021,0,0,0,.137,1.045.866.866,0,0,0,.548.5,3.931,3.931,0,0,0,1.257.149,6.47,6.47,0,0,0,1.568-.137.991.991,0,0,0,.672-.485,2.5,2.5,0,0,0,.174-1.07v-8.339h3.634v12.047H26.644v-1.469Q26.246-18.027,22.786-18.027Zm15.134,0a37.111,37.111,0,0,1-4.754-.373v-2.414a38.188,38.188,0,0,0,4.8.523,4.759,4.759,0,0,0,1.693-.224.818.818,0,0,0,.548-.821v-.747a1.035,1.035,0,0,0-.348-.884,2.468,2.468,0,0,0-1.369-.261H36.924a4.978,4.978,0,0,1-2.962-.759,2.579,2.579,0,0,1-1.045-2.228v-1.469a2.277,2.277,0,0,1,1.493-2.228,11.711,11.711,0,0,1,4.505-.66q1.195,0,4.281.224v2.315q-3.883-.3-4.381-.3a5.753,5.753,0,0,0-1.917.2.859.859,0,0,0-.4.821v.647a.684.684,0,0,0,.324.56,1.591,1.591,0,0,0,.946.236h1.593q4.431,0,4.431,2.887v1.518a3.356,3.356,0,0,1-.324,1.518,2.717,2.717,0,0,1-.846,1.021,3.9,3.9,0,0,1-1.282.548,10.287,10.287,0,0,1-1.63.274Q38.941-18.027,37.92-18.027Zm8.662-16.652h3.634v2.937H46.582Zm0,4.356h3.634v12.047H46.582Zm12.695,12.3q-1.12,0-1.842-.075a9.675,9.675,0,0,1-1.543-.3,3.791,3.791,0,0,1-1.444-.709,3.534,3.534,0,0,1-.921-1.307,4.792,4.792,0,0,1-.373-1.991v-3.559a5.407,5.407,0,0,1,.373-2.091,3.546,3.546,0,0,1,.971-1.394,4.39,4.39,0,0,1,1.381-.709,7.44,7.44,0,0,1,1.68-.361q.946-.05,1.717-.05,1.145,0,1.83.062a7.618,7.618,0,0,1,1.506.311,4.076,4.076,0,0,1,1.456.747,3.782,3.782,0,0,1,.958,1.344,5.551,5.551,0,0,1,.373,2.141v3.559a4.98,4.98,0,0,1-.361,1.966,3.4,3.4,0,0,1-.933,1.319,3.774,3.774,0,0,1-1.357.685,8.371,8.371,0,0,1-1.68.336Q60.322-18.027,59.277-18.027Zm0-2.265a5.551,5.551,0,0,0,1.543-.162,1.242,1.242,0,0,0,.734-.51,1.991,1.991,0,0,0,.212-1.021V-26.54a1.65,1.65,0,0,0-.523-1.394,3.441,3.441,0,0,0-1.966-.4,3.441,3.441,0,0,0-1.966.4,1.65,1.65,0,0,0-.523,1.394v4.555A1.991,1.991,0,0,0,57-20.964a1.242,1.242,0,0,0,.734.51A5.551,5.551,0,0,0,59.277-20.292Zm8.961-10.031h3.584v1.469q.423-1.718,3.858-1.718a4.9,4.9,0,0,1,3.248.834,3.352,3.352,0,0,1,.933,2.626v8.836H76.228V-26.64a3.021,3.021,0,0,0-.137-1.045.866.866,0,0,0-.548-.5,3.931,3.931,0,0,0-1.257-.149,6.47,6.47,0,0,0-1.568.137.991.991,0,0,0-.672.485,2.5,2.5,0,0,0-.174,1.07v8.363H68.238Zm14.34-4.107H88.1l3.983,11.55,3.933-11.55h5.2v16.154h-3.51V-30.224h-.075L93.555-18.276H90.443L86.237-30.224h-.1v11.948H82.578Zm28.028,16.4q-6.4,0-6.4-3.908v-4.331a3.73,3.73,0,0,1,1.456-3.286,7.9,7.9,0,0,1,4.493-1.021,7.118,7.118,0,0,1,4.194.983,3.861,3.861,0,0,1,1.332,3.323v2.937h-7.816v1.1a1.6,1.6,0,0,0,.747,1.493,5.665,5.665,0,0,0,2.688.448,17.928,17.928,0,0,0,4.032-.523V-18.5A22.623,22.623,0,0,1,110.605-18.027Zm1.618-7.368v-1.742a.983.983,0,0,0-.485-.9,3.276,3.276,0,0,0-1.63-.3,3.528,3.528,0,0,0-1.767.3,1.027,1.027,0,0,0-.473.9v1.742Zm10.753,7.368a37.111,37.111,0,0,1-4.754-.373v-2.414a38.188,38.188,0,0,0,4.8.523,4.759,4.759,0,0,0,1.693-.224.818.818,0,0,0,.548-.821v-.747a1.035,1.035,0,0,0-.348-.884,2.468,2.468,0,0,0-1.369-.261h-1.568a4.978,4.978,0,0,1-2.962-.759,2.579,2.579,0,0,1-1.045-2.228v-1.469a2.277,2.277,0,0,1,1.493-2.228,11.711,11.711,0,0,1,4.505-.66q1.195,0,4.281.224v2.315q-3.883-.3-4.381-.3a5.753,5.753,0,0,0-1.917.2.859.859,0,0,0-.4.821v.647a.684.684,0,0,0,.324.56,1.591,1.591,0,0,0,.946.236h1.593q4.431,0,4.431,2.887v1.518a3.356,3.356,0,0,1-.324,1.518,2.717,2.717,0,0,1-.846,1.021,3.9,3.9,0,0,1-1.282.548,10.287,10.287,0,0,1-1.63.274Q124-18.027,122.976-18.027ZM131.539-35.7h3.634v6.845q.348-1.718,3.808-1.718a4.9,4.9,0,0,1,3.248.834,3.352,3.352,0,0,1,.933,2.626v8.836h-3.634v-8.413a2.91,2.91,0,0,0-.137-1.033.83.83,0,0,0-.535-.473,4.249,4.249,0,0,0-1.269-.137,7.1,7.1,0,0,0-1.568.124.966.966,0,0,0-.672.46,2.414,2.414,0,0,0-.174,1.058v8.413h-3.634Z" transform="translate(986.43 4177.301)" fill="url(#linear-gradient)"/>
    <path id="Path_35543" data-name="Path 35543" d="M1.427-4.3V-7.7H.294v-.7H3.325v.7H2.192v3.4Zm2.556,0V-8.4h.735L6.353-5.723l-.3,0L7.621-8.4h.726v4.1H7.606l.012-3.1.141.05L6.435-5.147H5.9L4.543-7.355l.126-.05.012,3.1Z" transform="translate(1130.419 4150.294)" fill="#8830c5"/>
  </g>
</svg>
